<?xml version="1.0" encoding="UTF-8"?>
<!DOCTYPE svg PUBLIC "-//W3C//DTD SVG 1.1//EN" "http://www.w3.org/Graphics/SVG/1.1/DTD/svg11.dtd">
<!-- Creator: CorelDRAW -->
<svg xmlns="http://www.w3.org/2000/svg" xml:space="preserve" width="550.957mm" height="175.091mm" version="1.1" style="shape-rendering:geometricPrecision; text-rendering:geometricPrecision; image-rendering:optimizeQuality; fill-rule:evenodd; clip-rule:evenodd"
viewBox="0 0 10888651.85 3460348.38"
 xmlns:xlink="http://www.w3.org/1999/xlink"
 xmlns:xodm="http://www.corel.com/coreldraw/odm/2003">
 <defs>
  <style type="text/css">
   <![CDATA[
    .fil0 {fill:#0288D1}
    .fil1 {fill:#0288D1;fill-rule:nonzero}
   ]]>
  </style>
 </defs>
 <g id="Camada_x0020_1">
  <metadata id="CorelCorpID_0Corel-Layer"/>
  <g id="_2556425848368">
   <path class="fil0" d="M10222813.41 647731.43c365928.63,0 662871.99,295170.61 665838.44,660399.62l-57.31 15462.69c-3213.49,219035.03 -559672.75,1071850.69 -707501.14,1354963.8 -121341.81,-267012.06 -624187.59,-1167832.42 -624187.59,-1364918.5 0,-367472.13 298095.55,-665907.61 665907.61,-665907.61zm-35.57 341499.39c202471.53,0 366606.5,164134.97 366606.5,366606.5 0,202471.53 -164134.97,366606.5 -366606.5,366606.5 -202471.53,0 -366606.5,-164134.97 -366606.5,-366606.5 0,-202471.53 164134.97,-366606.5 366606.5,-366606.5z"/>
   <path class="fil0" d="M1025606.89 2208741.92c52747.86,138338.12 -363881.16,273255.25 -366337.72,408047.86 127098.82,-3171.99 322750.09,-260023.81 423362.33,-254179.85 217418.41,146411.37 568182.76,1508438.52 1352224.62,974135.73 104068.81,-93384.85 176486.94,-236223.05 185755.86,-375683.72 3488.2,-52475.13 10577.24,-97853.3 -31698.12,-101598.42 -1693.7,-150.2 -20569.49,1689.75 -23028.03,1871.57 -86770.13,-79728.51 -220525.17,699255.95 -621177.66,422498.68 -12456.72,-10442.85 -14616.83,-10253.12 -26030.05,-16229.5 -268454.78,-140567.41 -596363.05,-764733.26 -707621.7,-1039150.58 183.8,-361.67 653284.88,-496952.41 715524.98,-542686.32 31686.26,-19229.55 35953.13,-15116.84 39085.59,-54396.1 -27379.87,-120.56 -22840.28,-4741.18 -42882.09,7606.84 -102499.62,71586.1 -708285.74,517460.63 -763460.51,518978.44 -125428.83,-154198.05 -330679.06,-1027245.25 -403109.05,-1270500.03 -38046.05,-127774.72 -84647.56,-269504.2 52836.79,-348042.97 89463.84,-66860.73 187002.91,-127808.32 273241.41,-194289.59 119221.22,-93139.79 237031.36,-170947.33 356944.3,-270097.09 32990.63,-27277.1 68133.47,-34964.97 38617.2,-75024.88 -36214,-237.16 -80360.94,30316.68 -110893.03,52004.76 -175184.55,124456.48 -349564.73,249507.84 -524229.51,374806.23 -288727.82,215052.76 -549872.2,409794.92 -824131.42,647199.81 -15604.99,16741.37 -20417.31,14952.8 -18016.09,47399.95 62044.44,15935.03 72076.22,-5288.62 156539.99,-76493.29l315832.98 -248772.65c36162.62,-31860.18 72914.18,-69099.89 128606.75,-59327.01 25472.73,37134.97 336943.98,1244070.76 424042.18,1471922.14z"/>
   <path class="fil1" d="M3103271.67 1555087.47c0,18942.98 -664.04,34893.82 -2326.12,48518.54 -1660.1,13292.7 -3986.23,23927.25 -7310.39,31903.66 -3322.19,8308.43 -7310.39,14288.76 -12296.63,17944.94 -4652.25,3988.2 -10300.56,5982.31 -15950.84,5982.31l-315040.48 0 0 1015907.13c0,6314.33 -1994.1,12296.63 -6314.33,17612.92 -4320.23,4984.27 -11298.59,9304.49 -20937.09,12628.66 -9636.51,2990.17 -22929.21,5648.31 -39546.07,7642.41 -16614.88,1994.1 -37219.95,2992.14 -61811.24,2992.14 -24591.29,0 -45196.36,-998.04 -61811.24,-2992.14 -16616.86,-1994.1 -29909.56,-4652.25 -39546.07,-7642.41 -9638.49,-3324.16 -16616.86,-7644.39 -20937.09,-12628.66 -4320.23,-5316.29 -6314.33,-11298.59 -6314.33,-17612.92l0 -1015907.13 -315040.48 0c-6314.33,0 -11964.61,-1994.1 -16616.86,-5982.31 -4320.23,-3656.18 -8308.43,-9636.51 -11630.62,-17944.94 -2990.17,-7976.41 -5650.29,-18610.96 -7310.39,-31903.66 -1662.08,-13624.72 -2328.1,-29575.56 -2328.1,-48518.54 0,-19275 666.02,-35889.89 2328.1,-49516.58 1660.1,-13624.72 4320.23,-24591.29 7310.39,-32567.7 3322.19,-8306.45 7310.39,-13956.74 11630.62,-17612.92 4652.25,-3654.21 10302.53,-5316.29 16616.86,-5316.29l887298.41 0c5650.29,0 10966.57,1662.08 15950.84,5316.29 4986.24,3656.18 8974.45,9306.47 12296.63,17612.92 3324.16,7976.41 5650.29,18942.98 7310.39,32567.7 1662.08,13626.69 2326.12,30241.58 2326.12,49516.58zm591864.95 333983.46c0,23263.21 -664.04,42536.24 -1994.1,57491.01 -1328.08,14954.78 -3322.19,26585.39 -5648.31,34893.82 -2658.14,8308.43 -6314.33,14290.74 -10302.53,17612.92 -4320.23,3324.16 -9636.51,4652.25 -16282.86,4652.25 -4986.24,0 -10966.57,-996.06 -17612.92,-3322.19 -6314.33,-2326.12 -13626.69,-4652.25 -21935.12,-7310.39 -7974.43,-2660.12 -16946.9,-4986.24 -26585.39,-7312.37 -9968.53,-2326.12 -20603.09,-3322.19 -32233.7,-3322.19 -13626.69,0 -27251.41,2658.14 -40876.13,8308.43 -13624.72,5648.31 -27915.45,13956.74 -42538.21,25919.38 -14620.78,11632.59 -29907.58,27251.41 -45860.4,46526.42 -15950.84,19607.02 -32899.72,43534.28 -51176.69,72113.77l0 542016.35c0,6314.33 -1994.1,11962.64 -5982.31,16948.88 -3656.18,4984.27 -10302.53,8972.47 -19939.05,12294.66 -9304.49,2992.14 -21933.15,5650.29 -37219.95,7312.37 -15618.82,1660.1 -35557.87,2326.12 -59485.12,2326.12 -23927.25,0 -43866.3,-666.02 -59485.12,-2326.12 -15286.8,-1662.08 -27915.45,-4320.23 -37221.92,-7312.37 -9636.51,-3322.19 -16282.86,-7310.39 -19939.05,-12294.66 -3986.23,-4986.24 -5980.33,-10634.55 -5980.33,-16948.88l0 -869353.46c0,-6314.33 1660.1,-11964.61 4984.27,-16948.88 2990.17,-4984.27 8972.47,-8972.47 17280.9,-12296.63 8640.45,-2990.17 19275,-5648.31 32567.7,-7310.39 13292.7,-1662.08 30241.58,-2326.12 50180.62,-2326.12 20935.11,0 37883.99,664.04 51508.71,2326.12 13626.69,1662.08 24259.27,4320.23 31903.66,7310.39 7310.39,3324.16 12628.66,7312.37 15950.84,12296.63 3324.16,4984.27 4984.27,10634.55 4984.27,16948.88l0 108335.68c22599.17,-32565.72 44200.29,-59153.1 64139.34,-80088.2 20271.07,-20937.09 39546.07,-37885.97 57491.01,-50180.62 18278.94,-12296.63 36555.91,-20937.09 54832.87,-25589.33 17944.94,-4984.27 36223.88,-7310.39 54500.85,-7310.39 8308.43,0 17612.92,332.02 27251.41,1328.08 9636.51,998.04 19939.05,2660.12 30241.58,4986.24 10300.56,2326.12 19607.02,4984.27 27249.44,7642.41 7976.41,2992.14 13624.72,5982.31 17280.9,9304.49 3322.19,3324.16 5982.31,6980.35 7642.41,10634.55 1662.08,3988.2 2992.14,9306.47 4320.23,16284.84 1330.06,6646.35 2326.12,16946.9 2992.14,30573.6 664.04,13624.72 996.06,31901.68 996.06,55164.89zm846422.28 791257.39c0,8972.47 -3322.19,15952.82 -9636.51,21269.11 -6646.35,5316.29 -16948.88,8972.47 -30905.62,11298.59 -13958.72,2326.12 -34561.8,3324.16 -62145.24,3324.16 -29243.54,0 -50512.64,-998.04 -63805.34,-3324.16 -13292.7,-2326.12 -22929.21,-5982.31 -28247.48,-11298.59 -5648.31,-5316.29 -8308.43,-12296.63 -8308.43,-21269.11l0 -69121.63c-35889.89,38216.01 -76434,67793.55 -122294.4,89060.68 -45526.4,21269.11 -96373.04,31903.66 -152201.98,31903.66 -45860.4,0 -88398.61,-5982.31 -126946.64,-17944.94 -38550.01,-11964.61 -71781.75,-29909.56 -100029.23,-53504.79 -28247.48,-23927.25 -50180.62,-53170.79 -65799.44,-88064.61 -15620.8,-35225.85 -23263.21,-76101.98 -23263.21,-122626.42 0,-50844.67 9970.51,-94712.94 29575.56,-131932.89 19941.02,-37551.97 49516.58,-68125.57 88730.63,-92716.86 39214.05,-24259.27 87732.59,-42204.21 146221.65,-53836.81 58157.03,-11630.62 125950.58,-17612.92 203048.62,-17612.92l84742.43 0 0 -52506.75c0,-27249.44 -2658.14,-51176.69 -8308.43,-71781.75 -5316.29,-20271.07 -14622.76,-37551.97 -27249.44,-51176.69 -12628.66,-13624.72 -29245.51,-23595.23 -50514.62,-30241.58 -20935.11,-6314.33 -47188.48,-9636.51 -78094.1,-9636.51 -40876.13,0 -77432.04,4652.25 -109333.72,13624.72 -32235.68,8972.47 -60483.16,19275 -85074.45,30241.58 -24593.27,10966.57 -45196.36,21267.13 -61813.22,30241.58 -16614.88,8972.47 -29907.58,13624.72 -40210.11,13624.72 -7310.39,0 -13624.72,-2326.12 -18942.98,-6646.35 -5648.31,-4652.25 -10300.56,-11298.59 -13624.72,-19607.02 -3656.18,-8308.43 -6314.33,-18942.98 -8308.43,-31237.64 -1994.1,-12296.63 -2990.17,-25921.35 -2990.17,-40544.11 0,-20271.07 1662.08,-36223.88 4984.27,-47854.5 2992.14,-11630.62 9304.49,-21933.15 18278.94,-31569.66 9304.49,-9306.47 24923.31,-19607.02 47852.52,-30907.6 22599.17,-11298.59 49184.56,-21933.15 79758.16,-31569.66 30573.6,-9970.51 63805.34,-17944.94 99697.21,-23927.25 36221.91,-6314.33 73441.86,-9304.49 111659.84,-9304.49 68125.57,0 126282.6,6646.35 174801.14,19939.05 48186.52,13292.7 88064.61,33895.78 118970.23,61479.22 31239.62,27583.43 54168.83,63141.3 68459.56,106675.57 14288.76,43202.25 21267.13,95042.98 21267.13,154530.08l0 584552.59zm-241264.63 -372863.52l-93382.88 0c-39546.07,0 -73109.83,2990.17 -101025.29,8640.45 -27915.45,5980.33 -50512.64,14620.78 -68125.57,26585.39 -17612.92,11630.62 -30241.58,25587.36 -38217.99,42204.21 -8308.43,16616.86 -12294.66,35557.87 -12294.66,56826.97 0,36555.91 11630.62,65135.4 34559.83,85738.49 22931.19,20937.09 54832.87,31239.62 95709,31239.62 34229.78,0 65799.44,-8640.45 94712.94,-26253.37 28911.52,-17612.92 58155.06,-43202.25 88064.61,-77100.02l0 -147881.75zm1315328.79 369873.35c0,6314.33 -1992.13,11962.64 -5980.33,16948.88 -3656.18,4984.27 -10302.53,8972.47 -19275,12294.66 -9304.49,2992.14 -21933.15,5650.29 -37883.99,7312.37 -15952.82,1660.1 -35559.84,2326.12 -58821.07,2326.12 -24261.25,0 -44200.29,-666.02 -60151.13,-2326.12 -15950.84,-1662.08 -28579.5,-4320.23 -37883.99,-7312.37 -8972.47,-3322.19 -15618.82,-7310.39 -19275,-12294.66 -3988.2,-4986.24 -5982.31,-10634.55 -5982.31,-16948.88l0 -495491.91c0,-42204.21 -2990.17,-75435.96 -9304.49,-99363.21 -5982.31,-24261.25 -14954.78,-44864.34 -26585.39,-61813.22 -11632.59,-17280.9 -26919.39,-30573.6 -45196.36,-40210.11 -18610.96,-9304.49 -39878.09,-13958.72 -64471.36,-13958.72 -31237.64,0 -62475.28,11300.57 -94378.94,34229.78 -31569.66,22597.19 -64801.4,55830.91 -99031.19,99031.19l0 577576.19c0,6314.33 -1994.1,11962.64 -5982.31,16948.88 -3656.18,4984.27 -10302.53,8972.47 -19939.05,12294.66 -9304.49,2992.14 -21933.15,5650.29 -37219.95,7312.37 -15618.82,1660.1 -35557.87,2326.12 -59485.12,2326.12 -23927.25,0 -43866.3,-666.02 -59485.12,-2326.12 -15286.8,-1662.08 -27915.45,-4320.23 -37221.92,-7312.37 -9636.51,-3322.19 -16282.86,-7310.39 -19939.05,-12294.66 -3986.23,-4986.24 -5980.33,-10634.55 -5980.33,-16948.88l0 -869353.46c0,-6314.33 1660.1,-11964.61 4984.27,-16948.88 2990.17,-4984.27 8972.47,-8972.47 17280.9,-12296.63 8640.45,-2990.17 19275,-5648.31 32567.7,-7310.39 13292.7,-1662.08 30241.58,-2326.12 50180.62,-2326.12 20935.11,0 37883.99,664.04 51508.71,2326.12 13626.69,1662.08 24259.27,4320.23 31903.66,7310.39 7310.39,3324.16 12628.66,7312.37 15950.84,12296.63 3324.16,4984.27 4984.27,10634.55 4984.27,16948.88l0 100361.25c47854.5,-51842.7 96707.04,-90392.71 146555.64,-116312.09 49514.61,-25921.35 101357.31,-38882.03 155194.12,-38882.03 59153.1,0 109001.7,9636.51 149543.83,29243.54 40544.11,19275 73111.81,45860.4 98367.15,79426.14 24925.29,33231.74 42870.23,72445.79 53836.81,117308.15 10966.57,44864.34 16614.88,98699.17 16614.88,161508.45l0 536700.06zm852738.58 -245918.85c0,49184.56 -9304.49,92718.84 -27915.45,130602.83 -18276.96,37551.97 -44530.34,68791.59 -78428.1,94378.94 -33895.78,25257.31 -73775.85,44200.29 -119968.27,56826.97 -46192.42,12628.66 -96041.02,18942.98 -149875.85,18942.98 -32567.7,0 -63807.32,-2326.12 -93382.88,-7310.39 -29577.54,-4986.24 -55830.91,-11298.59 -79424.16,-18942.98 -23263.21,-7310.39 -42870.23,-14954.78 -58489.05,-22929.21 -15618.82,-7976.41 -26919.39,-15286.8 -33897.76,-22267.15 -7310.39,-6978.37 -12960.68,-17612.92 -16614.88,-32233.7 -3988.2,-14290.74 -5982.31,-35891.86 -5982.31,-64471.36 0,-18608.99 664.04,-33563.76 1994.1,-44862.36 1328.08,-11300.57 3322.19,-20605.06 5648.31,-27251.41 2660.12,-6646.35 5982.31,-11298.59 9970.51,-13624.72 3656.18,-2326.12 8640.45,-3324.16 14622.76,-3324.16 6978.37,0 17612.92,3988.2 31569.66,12296.63 13956.74,8308.43 31237.64,17280.9 52174.73,26917.42 20603.09,9970.51 44864.34,19275 72445.79,27583.43 27583.43,8640.45 59153.1,12960.68 94046.92,12960.68 21933.15,0 41872.19,-2326.12 58821.07,-6978.37 17280.9,-4320.23 32235.68,-10966.57 44864.34,-19607.02 12626.68,-8308.43 22265.17,-18942.98 28911.52,-32235.68 6314.33,-12960.68 9636.51,-27915.45 9636.51,-44864.34 0,-19607.02 -5980.33,-36221.91 -17944.94,-50180.62 -12296.63,-13956.74 -28247.48,-26253.37 -47854.5,-36553.93 -19939.05,-10302.53 -42536.24,-19941.02 -67461.53,-29245.51 -24923.31,-8972.47 -50844.67,-18941.01 -77098.04,-30241.58 -26253.37,-10966.57 -52174.73,-23593.25 -77098.04,-37883.99 -24925.29,-14290.74 -47522.48,-31569.66 -67461.53,-52506.75 -19607.02,-20603.09 -35557.87,-45860.4 -47854.5,-74771.92 -11964.61,-29245.51 -17944.94,-64471.36 -17944.94,-105347.49 0,-41540.17 8306.45,-79424.16 24591.29,-114317.99 16282.86,-34561.8 39546.07,-64469.38 70119.67,-89062.65 30905.62,-24591.29 68125.57,-43866.3 111991.86,-57491.01 44200.29,-13624.72 93382.88,-20271.07 148215.75,-20271.07 27583.43,0 53836.81,1994.1 79758.16,5648.31 25587.36,3988.2 49182.58,8972.47 69787.65,14622.76 20935.11,5982.31 38548.03,11964.61 52838.77,18942.98 14288.76,6646.35 24591.29,12626.68 30905.62,17280.9 6314.33,4984.27 10634.55,9636.51 13292.7,14620.78 2326.12,4986.24 4320.23,10634.55 5650.29,17612.92 1328.08,6646.35 2658.14,15286.8 3654.21,25257.31 998.04,9970.51 1330.06,22597.19 1330.06,37551.97 0,17612.92 -332.02,31903.66 -1330.06,42870.23 -996.06,10966.57 -2658.14,19939.05 -4984.27,26253.37 -2326.12,6646.35 -5316.29,10966.57 -9304.49,13292.7 -3988.2,2326.12 -8640.45,3322.19 -13624.72,3322.19 -5982.31,0 -15286.8,-3322.19 -27583.43,-10300.56 -12296.63,-6646.35 -27915.45,-13958.72 -46524.44,-21601.13 -18610.96,-7644.39 -40212.09,-14954.78 -64471.36,-21601.13 -24591.29,-6978.37 -52506.75,-10302.53 -83744.39,-10302.53 -22265.17,0 -41540.17,2326.12 -57825.01,6646.35 -16282.86,4652.25 -29575.56,11298.59 -40210.11,19607.02 -10302.53,8308.43 -18276.96,18278.94 -23263.21,29577.54 -5316.29,11298.59 -7974.43,23595.23 -7974.43,36221.91 0,20273.04 6312.35,37219.95 18608.99,50846.64 12296.63,13624.72 28579.5,25587.36 48850.56,35889.89 19941.02,10302.53 43202.25,20271.07 68791.59,29243.54 25589.33,8974.45 51842.7,18942.98 78096.08,29577.54 26253.37,10634.55 52506.75,23263.21 78096.08,37551.97 25587.36,14290.74 48850.56,31903.66 68789.61,52506.75 20271.07,20937.09 36555.91,45528.38 48850.56,74439.89 12296.63,28913.49 18610.96,63141.3 18610.96,102687.37zm689236.03 -954095.89c0,18942.98 -664.04,33897.76 -1994.1,45528.38 -1330.06,11298.59 -3324.16,20273.04 -5650.29,26253.37 -2658.14,6314.33 -5648.31,10302.53 -8972.47,12628.66 -2990.17,2326.12 -6646.35,3324.16 -10634.55,3324.16 -4652.25,0 -9636.51,-998.04 -14954.78,-3324.16 -5648.31,-2326.12 -12294.66,-4652.25 -20603.09,-7310.39 -7976.41,-2658.14 -17612.92,-4986.24 -28579.5,-7312.37 -10966.57,-2326.12 -23927.25,-3322.19 -38882.03,-3322.19 -17280.9,0 -32567.7,2658.14 -45196.36,8308.43 -12626.68,5316.29 -23261.23,14288.76 -31569.66,26253.37 -8308.43,11962.64 -14622.76,27581.46 -18276.96,46524.44 -3988.2,19275 -5982.31,42536.24 -5982.31,70451.69l0 79758.16 159182.32 0c5982.31,0 11298.59,1662.08 16282.86,4984.27 4986.24,3324.16 8972.47,8640.45 12296.63,15950.84 2990.17,7644.39 5648.31,17946.92 7310.39,30907.6 1662.08,12958.7 2326.12,28911.52 2326.12,47852.52 0,35891.86 -3322.19,61481.19 -9636.51,76767.99 -6646.35,15286.8 -15950.84,22929.21 -28579.5,22929.21l-159182.32 0 0 702860.75c0,6314.33 -1994.1,11962.64 -5982.31,16948.88 -3656.18,4984.27 -10302.53,8972.47 -19275,12294.66 -9304.49,2992.14 -21933.15,5650.29 -38216.01,7312.37 -16284.84,1660.1 -36223.88,2326.12 -59485.12,2326.12 -23595.23,0 -43202.25,-666.02 -59153.1,-2326.12 -15952.82,-1662.08 -28913.49,-4320.23 -38217.99,-7312.37 -9304.49,-3322.19 -15950.84,-7310.39 -19607.02,-12294.66 -3656.18,-4986.24 -5316.29,-10634.55 -5316.29,-16948.88l0 -702860.75 -108669.68 0c-12296.63,0 -21601.13,-7642.41 -27583.43,-22929.21 -6314.33,-15286.8 -9304.49,-40876.13 -9304.49,-76767.99 0,-18941.01 664.04,-34893.82 2326.12,-47852.52 1662.08,-12960.68 3988.2,-23263.21 6978.37,-30907.6 2992.14,-7310.39 6646.35,-12626.68 11632.59,-15950.84 4652.25,-3322.19 10300.56,-4984.27 16946.9,-4984.27l107673.61 0 0 -73111.81c0,-59153.1 5980.33,-110995.8 17612.92,-155526.14 11630.62,-44198.32 29907.58,-81418.26 54832.87,-110995.8 25255.33,-29575.56 57158.99,-51840.73 95709,-66795.51 38548.03,-14954.78 84408.43,-22267.15 136915.18,-22267.15 25257.31,0 49184.56,1994.1 72113.77,6314.33 22599.17,4320.23 40544.11,8972.47 53504.79,13626.69 12960.68,4984.27 21933.15,9636.51 26253.37,13624.72 4652.25,4320.23 8308.43,10634.55 11298.59,18608.99 2990.17,8308.43 4984.27,18610.96 6314.33,31239.62 1330.06,12960.68 1994.1,28579.5 1994.1,47520.5zm875003.75 740412.72c0,29909.56 -6646.35,51842.7 -19939.05,66133.44 -13294.67,14288.76 -31571.64,21601.13 -55166.87,21601.13l-529055.67 0c0,36887.93 4320.23,70119.67 13292.7,100361.25 8640.45,29907.58 22597.19,55496.91 41540.17,76434 19275,20935.11 43866.3,36887.93 74107.87,47854.5 30241.58,10966.57 66131.47,16614.88 108337.66,16614.88 42868.26,0 80420.23,-2990.17 112987.93,-9304.49 32235.68,-6314.33 60483.16,-12960.68 84078.38,-20605.06 23595.23,-7642.41 43202.25,-14288.76 58821.07,-20603.09 15618.82,-6314.33 28247.48,-9304.49 37883.99,-9304.49 5982.31,0 10966.57,996.06 14622.76,3322.19 3988.2,2326.12 7310.39,6314.33 9968.53,12296.63 2326.12,5648.31 4320.23,13956.74 5318.26,24591.29 996.06,10634.55 1328.08,24259.27 1328.08,40212.09 0,14288.76 -332.02,26585.39 -996.06,36553.93 -664.04,9970.51 -1662.08,18610.96 -2990.17,25589.33 -1330.06,7310.39 -2992.14,13292.7 -5650.29,17944.94 -2658.14,4986.24 -5982.31,9638.49 -10302.53,14290.74 -4320.23,4320.23 -15618.82,10634.55 -34559.83,18608.99 -18942.98,7976.41 -42870.23,15618.82 -72115.75,23263.21 -29243.54,7642.41 -62475.28,14288.76 -100027.25,19939.05 -37553.94,5650.29 -77764.06,8640.45 -120634.29,8640.45 -77430.06,0 -144891.59,-9636.51 -203048.62,-29243.54 -57823.04,-19275 -106341.58,-48852.54 -145555.63,-88398.61 -38882.03,-39546.07 -67793.55,-89726.69 -87068.55,-149875.85 -18942.98,-60483.16 -28579.5,-131268.84 -28579.5,-212355.09 0,-77098.04 9968.53,-146553.67 30241.58,-208696.93 19939.05,-61813.22 49182.58,-114319.96 87732.59,-157520.24 38216.01,-43202.25 84742.43,-76101.98 139575.3,-98701.14 55164.89,-22929.21 116976.13,-34227.81 185767.72,-34227.81 72777.81,0 134923.05,10634.55 186431.76,32235.68 51842.7,21267.13 94046.92,51176.69 127280.64,89060.68 32899.72,37885.97 57491.01,83080.35 73109.83,134923.05 15618.82,51842.7 23263.21,108337.66 23263.21,169484.85l0 38880.05zm-237278.4 -69785.67c1994.1,-68791.59 -11962.64,-122960.41 -41540.17,-162174.46 -29577.54,-39546.07 -75103.94,-59153.1 -136917.15,-59153.1 -31237.64,0 -58489.05,5982.31 -81418.26,17612.92 -23263.21,11632.59 -42536.24,27251.41 -57823.04,47190.46 -15286.8,19939.05 -26919.39,43202.25 -34893.82,70119.67 -8308.43,27249.44 -12960.68,55830.91 -14290.74,86404.51l366883.19 0zm997962.19 -258879.53c0,23263.21 -664.04,42536.24 -1994.1,57491.01 -1328.08,14954.78 -3322.19,26585.39 -5648.31,34893.82 -2658.14,8308.43 -6314.33,14290.74 -10302.53,17612.92 -4320.23,3324.16 -9636.51,4652.25 -16282.86,4652.25 -4986.24,0 -10966.57,-996.06 -17612.92,-3322.19 -6314.33,-2326.12 -13626.69,-4652.25 -21935.12,-7310.39 -7974.43,-2660.12 -16946.9,-4986.24 -26585.39,-7312.37 -9968.53,-2326.12 -20603.09,-3322.19 -32233.7,-3322.19 -13626.69,0 -27251.41,2658.14 -40876.13,8308.43 -13624.72,5648.31 -27915.45,13956.74 -42538.21,25919.38 -14620.78,11632.59 -29907.58,27251.41 -45860.4,46526.42 -15950.84,19607.02 -32899.72,43534.28 -51176.69,72113.77l0 542016.35c0,6314.33 -1994.1,11962.64 -5982.31,16948.88 -3656.18,4984.27 -10302.53,8972.47 -19939.05,12294.66 -9304.49,2992.14 -21933.15,5650.29 -37219.95,7312.37 -15618.82,1660.1 -35557.87,2326.12 -59485.12,2326.12 -23927.25,0 -43866.3,-666.02 -59485.12,-2326.12 -15286.8,-1662.08 -27915.45,-4320.23 -37221.92,-7312.37 -9636.51,-3322.19 -16282.86,-7310.39 -19939.05,-12294.66 -3986.23,-4986.24 -5980.33,-10634.55 -5980.33,-16948.88l0 -869353.46c0,-6314.33 1660.1,-11964.61 4984.27,-16948.88 2990.17,-4984.27 8972.47,-8972.47 17280.9,-12296.63 8640.45,-2990.17 19275,-5648.31 32567.7,-7310.39 13292.7,-1662.08 30241.58,-2326.12 50180.62,-2326.12 20935.11,0 37883.99,664.04 51508.71,2326.12 13626.69,1662.08 24259.27,4320.23 31903.66,7310.39 7310.39,3324.16 12628.66,7312.37 15950.84,12296.63 3324.16,4984.27 4984.27,10634.55 4984.27,16948.88l0 108335.68c22599.17,-32565.72 44200.29,-59153.1 64139.34,-80088.2 20271.07,-20937.09 39546.07,-37885.97 57491.01,-50180.62 18278.94,-12296.63 36555.91,-20937.09 54832.87,-25589.33 17944.94,-4984.27 36223.88,-7310.39 54500.85,-7310.39 8308.43,0 17612.92,332.02 27251.41,1328.08 9636.51,998.04 19939.05,2660.12 30241.58,4986.24 10300.56,2326.12 19607.02,4984.27 27249.44,7642.41 7976.41,2992.14 13624.72,5982.31 17280.9,9304.49 3322.19,3324.16 5982.31,6980.35 7642.41,10634.55 1662.08,3988.2 2992.14,9306.47 4320.23,16284.84 1330.06,6646.35 2326.12,16946.9 2992.14,30573.6 664.04,13624.72 996.06,31901.68 996.06,55164.89zm738418.62 542348.37c0,49184.56 -9304.49,92718.84 -27915.45,130602.83 -18276.96,37551.97 -44530.34,68791.59 -78428.1,94378.94 -33895.78,25257.31 -73775.85,44200.29 -119968.27,56826.97 -46192.42,12628.66 -96041.02,18942.98 -149875.85,18942.98 -32567.7,0 -63807.32,-2326.12 -93382.88,-7310.39 -29577.54,-4986.24 -55830.91,-11298.59 -79424.16,-18942.98 -23263.21,-7310.39 -42870.23,-14954.78 -58489.05,-22929.21 -15618.82,-7976.41 -26919.39,-15286.8 -33897.76,-22267.15 -7310.39,-6978.37 -12960.68,-17612.92 -16614.88,-32233.7 -3988.2,-14290.74 -5982.31,-35891.86 -5982.31,-64471.36 0,-18608.99 664.04,-33563.76 1994.1,-44862.36 1328.08,-11300.57 3322.19,-20605.06 5648.31,-27251.41 2660.12,-6646.35 5982.31,-11298.59 9970.51,-13624.72 3656.18,-2326.12 8640.45,-3324.16 14622.76,-3324.16 6978.37,0 17612.92,3988.2 31569.66,12296.63 13956.74,8308.43 31237.64,17280.9 52174.73,26917.42 20603.09,9970.51 44864.34,19275 72445.79,27583.43 27583.43,8640.45 59153.1,12960.68 94046.92,12960.68 21933.15,0 41872.19,-2326.12 58821.07,-6978.37 17280.9,-4320.23 32235.68,-10966.57 44864.34,-19607.02 12626.68,-8308.43 22265.17,-18942.98 28911.52,-32235.68 6314.33,-12960.68 9636.51,-27915.45 9636.51,-44864.34 0,-19607.02 -5980.33,-36221.91 -17944.94,-50180.62 -12296.63,-13956.74 -28247.48,-26253.37 -47854.5,-36553.93 -19939.05,-10302.53 -42536.24,-19941.02 -67461.53,-29245.51 -24923.31,-8972.47 -50844.67,-18941.01 -77098.04,-30241.58 -26253.37,-10966.57 -52174.73,-23593.25 -77098.04,-37883.99 -24925.29,-14290.74 -47522.48,-31569.66 -67461.53,-52506.75 -19607.02,-20603.09 -35557.87,-45860.4 -47854.5,-74771.92 -11964.61,-29245.51 -17944.94,-64471.36 -17944.94,-105347.49 0,-41540.17 8306.45,-79424.16 24591.29,-114317.99 16282.86,-34561.8 39546.07,-64469.38 70119.67,-89062.65 30905.62,-24591.29 68125.57,-43866.3 111991.86,-57491.01 44200.29,-13624.72 93382.88,-20271.07 148215.75,-20271.07 27583.43,0 53836.81,1994.1 79758.16,5648.31 25587.36,3988.2 49182.58,8972.47 69787.65,14622.76 20935.11,5982.31 38548.03,11964.61 52838.77,18942.98 14288.76,6646.35 24591.29,12626.68 30905.62,17280.9 6314.33,4984.27 10634.55,9636.51 13292.7,14620.78 2326.12,4986.24 4320.23,10634.55 5650.29,17612.92 1328.08,6646.35 2658.14,15286.8 3654.21,25257.31 998.04,9970.51 1330.06,22597.19 1330.06,37551.97 0,17612.92 -332.02,31903.66 -1330.06,42870.23 -996.06,10966.57 -2658.14,19939.05 -4984.27,26253.37 -2326.12,6646.35 -5316.29,10966.57 -9304.49,13292.7 -3988.2,2326.12 -8640.45,3322.19 -13624.72,3322.19 -5982.31,0 -15286.8,-3322.19 -27583.43,-10300.56 -12296.63,-6646.35 -27915.45,-13958.72 -46524.44,-21601.13 -18610.96,-7644.39 -40212.09,-14954.78 -64471.36,-21601.13 -24591.29,-6978.37 -52506.75,-10302.53 -83744.39,-10302.53 -22265.17,0 -41540.17,2326.12 -57825.01,6646.35 -16282.86,4652.25 -29575.56,11298.59 -40210.11,19607.02 -10302.53,8308.43 -18276.96,18278.94 -23263.21,29577.54 -5316.29,11298.59 -7974.43,23595.23 -7974.43,36221.91 0,20273.04 6312.35,37219.95 18608.99,50846.64 12296.63,13624.72 28579.5,25587.36 48850.56,35889.89 19941.02,10302.53 43202.25,20271.07 68791.59,29243.54 25589.33,8974.45 51842.7,18942.98 78096.08,29577.54 26253.37,10634.55 52506.75,23263.21 78096.08,37551.97 25587.36,14290.74 48850.56,31903.66 68789.61,52506.75 20271.07,20937.09 36555.91,45528.38 48850.56,74439.89 12296.63,28913.49 18610.96,63141.3 18610.96,102687.37z"/>
   <g>
    <path class="fil1" d="M3167820.1 3058733.42c0,5332.1 -187.75,9820.31 -654.16,13656.34 -468.39,3741.17 -1122.55,6733.31 -2057.34,8978.4 -936.77,2337.98 -2057.34,4021.8 -3460.53,5049.49 -1310.3,1122.55 -2899.25,1683.82 -4490.19,1683.82l-88663.44 0 0 285911.57c0,1776.71 -561.27,3460.53 -1776.71,4956.6 -1215.43,1403.18 -3179.89,2618.62 -5891.4,3553.42 -2713.48,841.91 -6454.65,1590.93 -11130.61,2152.21 -4675.96,561.27 -10474.47,841.91 -17395.53,841.91 -6921.06,0 -12719.57,-280.64 -17395.53,-841.91 -4677.94,-561.27 -8417.13,-1310.3 -11130.61,-2152.21 -2711.5,-934.8 -4675.96,-2150.23 -5891.4,-3553.42 -1215.43,-1496.07 -1776.71,-3179.89 -1776.71,-4956.6l0 -285911.57 -88663.44 0c-1778.68,0 -3367.64,-561.27 -4677.94,-1683.82 -1215.43,-1027.68 -2337.98,-2711.5 -3272.78,-5049.49 -841.91,-2245.09 -1588.96,-5237.24 -2057.34,-8978.4 -468.39,-3836.03 -654.16,-8324.24 -654.16,-13656.34 0,-5423.01 185.77,-10100.95 654.16,-13935 468.39,-3834.05 1215.43,-6921.06 2057.34,-9166.15 934.8,-2337.98 2057.34,-3926.94 3272.78,-4956.6 1310.3,-1027.68 2899.25,-1496.07 4677.94,-1496.07l249715.35 0c1590.93,0 3087,468.39 4490.19,1496.07 1403.18,1029.66 2523.75,2618.62 3460.53,4956.6 934.8,2245.09 1588.96,5332.1 2057.34,9166.15 466.41,3834.05 654.16,8511.99 654.16,13935zm166571.76 93995.54c0,6545.56 -187.75,11970.54 -561.27,16180.09 -375.5,4207.58 -936.77,7482.33 -1590.93,9820.31 -749.02,2337.98 -1776.71,4021.8 -2899.25,4956.6 -1215.43,934.8 -2711.5,1310.3 -4583.08,1310.3 -1403.18,0 -3087,-280.64 -4956.6,-936.77 -1776.71,-654.16 -3834.05,-1308.32 -6172.03,-2057.34 -2245.09,-747.05 -4770.83,-1403.18 -7482.33,-2057.34 -2806.37,-654.16 -5798.51,-934.8 -9073.26,-934.8 -3834.05,0 -7668.1,747.05 -11504.13,2337.98 -3834.05,1588.96 -7855.85,3928.91 -11970.54,7294.58 -4114.69,3272.78 -8417.13,7670.08 -12907.32,13093.09 -4488.21,5519.85 -9259.04,12253.16 -14403.39,20296.76l0 152541.9c0,1776.71 -559.3,3367.64 -1681.84,4768.85 -1029.66,1403.18 -2899.25,2525.73 -5612.74,3460.53 -2618.62,841.91 -6172.03,1590.93 -10474.47,2059.32 -4395.33,466.41 -10008.06,654.16 -16741.37,654.16 -6733.31,0 -12346.04,-187.75 -16741.37,-654.16 -4302.44,-468.39 -7855.85,-1217.41 -10474.47,-2059.32 -2713.48,-934.8 -4583.08,-2057.34 -5612.74,-3460.53 -1122.55,-1401.21 -1683.82,-2992.14 -1683.82,-4768.85l0 -244665.87c0,-1776.71 468.39,-3367.64 1403.18,-4770.83 841.91,-1403.18 2525.73,-2523.75 4863.71,-3460.53 2432.84,-841.91 5424.99,-1588.96 9166.15,-2057.34 3741.17,-466.41 8510.01,-654.16 14122.75,-654.16 5891.4,0 10662.22,187.75 14496.27,654.16 3834.05,468.39 6828.17,1215.43 8978.4,2057.34 2057.34,936.77 3553.42,2057.34 4490.19,3460.53 934.8,1403.18 1401.21,2994.12 1401.21,4770.83l0 30488.62c6361.76,-9164.17 12440.91,-16646.5 18051.66,-22539.88 5705.62,-5891.4 11130.61,-10662.22 16180.09,-14122.75 5144.35,-3460.53 10288.7,-5891.4 15431.07,-7201.69 5051.46,-1401.21 10195.81,-2057.34 15340.16,-2057.34 2337.98,0 4956.6,94.86 7668.1,375.5 2711.5,280.64 5612.74,747.05 8511.99,1403.18 2899.25,654.16 5517.87,1401.21 7668.1,2150.23 2245.09,841.91 3834.05,1683.82 4863.71,2618.62 934.8,934.8 1683.82,1964.46 2150.23,2992.14 468.39,1122.55 841.91,2618.62 1217.41,4583.08 373.52,1871.57 654.16,4770.83 841.91,8604.88 185.77,3834.05 280.64,8978.4 280.64,15525.93zm238211.22 222687.26c0,2525.73 -934.8,4488.21 -2711.5,5986.26 -1871.57,1496.07 -4770.83,2523.75 -8697.76,3179.89 -3928.91,654.16 -9727.42,934.8 -17490.39,934.8 -8229.38,0 -14215.64,-280.64 -17956.8,-934.8 -3741.17,-656.14 -6452.67,-1683.82 -7948.74,-3179.89 -1590.93,-1498.05 -2339.96,-3460.53 -2339.96,-5986.26l0 -19454.85c-10100.95,10757.08 -21510.22,19081.32 -34417.53,25065.61 -12812.45,5986.26 -27122.95,8978.4 -42834.66,8978.4 -12907.32,0 -24877.86,-1681.84 -35727.83,-5049.49 -10848,-3367.64 -20201.9,-8417.13 -28150.64,-15057.55 -7950.72,-6735.28 -14122.75,-14964.66 -18518.08,-24784.97 -4397.3,-9913.2 -6547.53,-21417.33 -6547.53,-34512.4 0,-14308.52 2806.37,-26654.57 8324.24,-37129.04 5610.76,-10569.33 13935,-19174.21 24970.74,-26093.29 11037.72,-6828.17 24692.08,-11879.63 41152.82,-15152.41 16365.87,-3272.78 35447.19,-4956.6 57145.16,-4956.6l23848.2 0 0 -14776.91c0,-7670.08 -747.05,-14403.39 -2337.98,-20201.9 -1496.07,-5705.62 -4114.69,-10569.33 -7668.1,-14403.39 -3555.39,-3834.05 -8231.35,-6640.42 -14217.61,-8511.99 -5891.4,-1776.71 -13280.84,-2711.5 -21978.6,-2711.5 -11504.13,0 -21790.85,1310.3 -30769.25,3834.05 -9073.26,2525.73 -17022,5424.99 -23943.06,8511.99 -6921.06,3085.03 -12719.57,5986.26 -17395.53,8510.01 -4677.94,2525.73 -8419.1,3836.03 -11318.36,3836.03 -2057.34,0 -3834.05,-656.14 -5330.12,-1871.57 -1590.93,-1308.32 -2899.25,-3179.89 -3834.05,-5517.87 -1029.66,-2337.98 -1778.68,-5330.12 -2337.98,-8790.65 -561.27,-3460.53 -841.91,-7296.56 -841.91,-11411.24 0,-5705.62 466.41,-10193.83 1401.21,-13468.59 841.91,-3272.78 2620.59,-6172.03 5144.35,-8883.54 2618.62,-2618.62 7015.92,-5517.87 13468.59,-8697.76 6359.78,-3181.87 13842.11,-6174.01 22446.99,-8885.51 8602.9,-2806.37 17956.8,-5051.46 28057.75,-6735.28 10193.83,-1776.71 20668.31,-2618.62 31425.39,-2618.62 19172.24,0 35540.08,1871.57 49194.44,5612.74 13561.48,3741.17 24784.97,9539.67 33482.74,17302.64 8790.65,7762.97 15245.3,17769.05 19267.1,30022.21 4021.8,12158.29 5984.28,26747.45 5984.28,43488.82l0 164514.42zm-67900.27 -104936.42l-26281.04 0c-11128.63,0 -20575.42,839.93 -28431.27,2430.87 -7855.85,1683.82 -14215.64,4114.69 -19174.21,7482.33 -4956.6,3272.78 -8510.01,7201.69 -10755.11,11877.66 -2337.98,4675.96 -3460.53,10008.06 -3460.53,15992.34 0,10288.7 3272.78,18332.3 9727.42,24130.81 6452.67,5891.4 15431.07,8790.65 26935.2,8790.65 9632.56,0 18518.08,-2430.87 26654.57,-7387.47 8138.47,-4956.6 16367.84,-12158.29 24784.97,-21697.97l0 -41619.23zm370179.68 104094.51c0,1776.71 -561.27,3367.64 -1683.82,4768.85 -1029.66,1403.18 -2899.25,2525.73 -5424.99,3460.53 -2618.62,841.91 -6172.03,1590.93 -10662.22,2059.32 -4488.21,466.41 -10006.08,654.16 -16553.62,654.16 -6828.17,0 -12438.93,-187.75 -16929.12,-654.16 -4488.21,-468.39 -8043.6,-1217.41 -10662.22,-2059.32 -2523.75,-934.8 -4395.33,-2057.34 -5423.01,-3460.53 -1122.55,-1401.21 -1683.82,-2992.14 -1683.82,-4768.85l0 -139448.81c0,-11877.66 -841.91,-21229.58 -2618.62,-27964.86 -1683.82,-6826.19 -4209.55,-12624.7 -7482.33,-17395.53 -3274.75,-4863.71 -7575.22,-8604.88 -12719.57,-11316.38 -5237.24,-2618.62 -11223.5,-3928.91 -18144.55,-3928.91 -8792.63,0 -17583.28,3179.89 -26561.68,9634.54 -8885.51,6359.78 -18237.44,15711.71 -27871.98,27870l0 162549.96c0,1776.71 -559.3,3367.64 -1681.84,4768.85 -1029.66,1403.18 -2899.25,2525.73 -5612.74,3460.53 -2618.62,841.91 -6172.03,1590.93 -10474.47,2059.32 -4395.33,466.41 -10008.06,654.16 -16741.37,654.16 -6733.31,0 -12346.04,-187.75 -16741.37,-654.16 -4302.44,-468.39 -7855.85,-1217.41 -10474.47,-2059.32 -2713.48,-934.8 -4583.08,-2057.34 -5612.74,-3460.53 -1122.55,-1401.21 -1683.82,-2992.14 -1683.82,-4768.85l0 -244665.87c0,-1776.71 468.39,-3367.64 1403.18,-4770.83 841.91,-1403.18 2525.73,-2523.75 4863.71,-3460.53 2432.84,-841.91 5424.99,-1588.96 9166.15,-2057.34 3741.17,-466.41 8510.01,-654.16 14122.75,-654.16 5891.4,0 10662.22,187.75 14496.27,654.16 3834.05,468.39 6828.17,1215.43 8978.4,2057.34 2057.34,936.77 3553.42,2057.34 4490.19,3460.53 934.8,1403.18 1401.21,2994.12 1401.21,4770.83l0 28245.5c13468.59,-14591.14 27217.82,-25439.13 41245.7,-32735.69 13936.98,-7294.58 28526.14,-10942.86 43678.55,-10942.86 16646.5,0 30676.37,2713.48 42085.64,8231.35 11411.24,5424.99 20575.42,12907.32 27684.23,22352.13 7013.94,9353.9 12065.41,20389.65 15152.41,33016.32 3085.03,12624.7 4675.96,27777.11 4675.96,45453.28l0 151045.83zm239989.9 -69210.56c0,13842.11 -2618.62,26095.27 -7855.85,36757.49 -5144.35,10567.36 -12533.79,19359.99 -22073.47,26561.68 -9539.67,7106.83 -20763.17,12438.93 -33763.37,15992.34 -13000.2,3553.42 -27028.09,5330.12 -42180.5,5330.12 -9164.17,0 -17956.8,-654.16 -26281.04,-2057.34 -8322.26,-1403.18 -15711.71,-3179.89 -22352.13,-5330.12 -6547.53,-2057.34 -12065.41,-4209.55 -16460.73,-6454.65 -4395.33,-2243.12 -7575.22,-4300.46 -9539.67,-6264.92 -2057.34,-1964.46 -3648.28,-4956.6 -4675.96,-9073.26 -1122.55,-4021.8 -1683.82,-10100.95 -1683.82,-18142.58 0,-5239.21 187.75,-9446.79 561.27,-12626.68 373.52,-3179.89 934.8,-5798.51 1588.96,-7670.08 749.02,-1869.59 1683.82,-3179.89 2806.37,-3834.05 1029.66,-654.16 2432.84,-934.8 4114.69,-934.8 1964.46,0 4958.58,1122.55 8885.51,3460.53 3928.91,2337.98 8792.63,4863.71 14684.02,7575.22 5798.51,2806.37 12626.68,5424.99 20389.65,7762.97 7760.99,2430.87 16646.5,3646.3 26466.82,3646.3 6174.01,0 11784.77,-654.16 16555.59,-1962.48 4861.74,-1217.41 9071.29,-3087 12624.7,-5517.87 3555.39,-2339.96 6266.9,-5332.1 8136.49,-9073.26 1778.68,-3648.28 2713.48,-7855.85 2713.48,-12626.68 0,-5517.87 -1683.82,-10193.83 -5051.46,-14120.77 -3460.53,-3928.91 -7948.74,-7389.44 -13466.61,-10288.7 -5612.74,-2899.25 -11972.52,-5612.74 -18986.46,-8231.35 -7013.94,-2523.75 -14310.5,-5330.12 -21697.97,-8510.01 -7389.44,-3087 -14684.02,-6640.42 -21697.97,-10662.22 -7015.92,-4021.8 -13375.7,-8885.51 -18986.46,-14776.91 -5517.87,-5798.51 -10008.06,-12907.32 -13468.59,-21043.81 -3365.67,-8231.35 -5049.49,-18144.55 -5049.49,-29648.68 0,-11689.91 2337.98,-22352.13 6921.06,-32172.44 4583.08,-9727.42 11128.63,-18144.55 19733.51,-25065.61 8697.76,-6921.06 19174.21,-12346.04 31518.28,-16180.09 12438.93,-3834.05 26281.04,-5705.62 41714.09,-5705.62 7762.97,0 15150.43,561.27 22445.01,1590.93 7201.69,1122.55 13842.11,2525.73 19640.62,4114.69 5893.37,1683.82 10849.97,3367.64 14871.77,5332.1 4021.8,1869.59 6921.06,3553.42 8697.76,4861.74 1776.71,1403.18 2992.14,2713.48 3741.17,4116.66 654.16,1403.18 1215.43,2992.14 1588.96,4956.6 375.5,1869.59 749.02,4302.44 1029.66,7106.83 280.64,2806.37 373.52,6359.78 373.52,10569.33 0,4956.6 -92.89,8978.4 -373.52,12065.41 -280.64,3085.03 -749.02,5610.76 -1403.18,7387.47 -654.16,1871.57 -1496.07,3087 -2618.62,3741.17 -1122.55,656.14 -2430.87,936.77 -3834.05,936.77 -1683.82,0 -4302.44,-936.77 -7762.97,-2899.25 -3460.53,-1871.57 -7855.85,-3928.91 -13093.09,-6081.12 -5239.21,-2150.23 -11318.36,-4207.58 -18144.55,-6079.15 -6921.06,-1962.48 -14776.91,-2899.25 -23569.54,-2899.25 -6266.9,0 -11689.91,656.14 -16272.98,1871.57 -4583.08,1308.32 -8324.24,3179.89 -11316.38,5517.87 -2899.25,2337.98 -5144.35,5144.35 -6547.53,8324.24 -1496.07,3179.89 -2245.09,6640.42 -2245.09,10193.83 0,5705.62 1776.71,10474.47 5237.24,14310.5 3460.53,3834.05 8043.6,7201.69 13749.23,10100.95 5610.76,2899.25 12158.29,5703.65 19359.99,8229.38 7201.69,2525.73 14591.14,5332.1 21978.6,8324.24 7389.44,2992.14 14776.91,6547.53 21978.6,10569.33 7201.69,4019.83 13749.23,8978.4 19359.99,14776.91 5705.62,5891.4 10288.7,12812.45 13749.23,20948.94 3460.53,8136.49 5237.24,17771.03 5237.24,28899.66zm193975.35 -268514.06c0,5330.12 -187.75,9539.67 -561.27,12812.45 -375.5,3179.89 -936.77,5705.62 -1590.93,7389.44 -749.02,1776.71 -1588.96,2899.25 -2525.73,3553.42 -841.91,654.16 -1869.59,934.8 -2992.14,934.8 -1310.3,0 -2711.5,-280.64 -4209.55,-934.8 -1588.96,-654.16 -3460.53,-1310.3 -5798.51,-2057.34 -2243.12,-749.02 -4956.6,-1403.18 -8043.6,-2057.34 -3085.03,-656.14 -6733.31,-936.77 -10940.88,-936.77 -4863.71,0 -9166.15,749.02 -12719.57,2337.98 -3555.39,1498.05 -6547.53,4021.8 -8885.51,7389.44 -2337.98,3367.64 -4114.69,7762.97 -5144.35,13093.09 -1122.55,5424.99 -1683.82,11972.52 -1683.82,19828.37l0 22446.99 44799.12 0c1683.82,0 3179.89,466.41 4583.08,1403.18 1403.18,934.8 2525.73,2430.87 3460.53,4488.21 841.91,2152.21 1590.93,5051.46 2057.34,8697.76 468.39,3648.28 656.14,8136.49 656.14,13468.59 0,10100.95 -936.77,17302.64 -2713.48,21605.08 -1869.59,4302.44 -4488.21,6452.67 -8043.6,6452.67l-44799.12 0 0 197809.41c0,1776.71 -561.27,3367.64 -1683.82,4768.85 -1027.68,1403.18 -2899.25,2525.73 -5423.01,3460.53 -2620.59,841.91 -6174.01,1590.93 -10757.08,2059.32 -4583.08,466.41 -10193.83,654.16 -16741.37,654.16 -6640.42,0 -12158.29,-187.75 -16646.5,-654.16 -4490.19,-468.39 -8136.49,-1217.41 -10757.08,-2059.32 -2618.62,-934.8 -4488.21,-2057.34 -5517.87,-3460.53 -1027.68,-1401.21 -1496.07,-2992.14 -1496.07,-4768.85l0 -197809.41 -30583.48 0c-3460.53,0 -6079.15,-2150.23 -7762.97,-6452.67 -1776.71,-4302.44 -2618.62,-11504.13 -2618.62,-21605.08 0,-5332.1 187.75,-9820.31 656.14,-13468.59 466.41,-3646.3 1120.57,-6545.56 1962.48,-8697.76 841.91,-2057.34 1871.57,-3553.42 3274.75,-4488.21 1308.32,-936.77 2899.25,-1403.18 4768.85,-1403.18l30302.84 0 0 -20577.4c0,-16646.5 1683.82,-31237.64 4956.6,-43769.46 3274.75,-12438.93 8417.13,-22913.4 15433.05,-31237.64 7106.83,-8324.24 16085.23,-14591.14 26935.2,-18798.71 10849.97,-4209.55 23755.31,-6266.9 38532.22,-6266.9 7108.81,0 13842.11,561.27 20296.76,1776.71 6359.78,1215.43 11409.27,2525.73 15057.55,3834.05 3646.3,1403.18 6172.03,2713.48 7387.47,3836.03 1310.3,1215.43 2339.96,2992.14 3179.89,5237.24 841.91,2337.98 1403.18,5237.24 1778.68,8790.65 373.52,3648.28 561.27,8043.6 561.27,13375.7zm246256.8 208376.76c0,8417.13 -1871.57,14591.14 -5612.74,18612.94 -3741.17,4019.83 -8885.51,6079.15 -15525.93,6079.15l-148893.62 0c0,10381.58 1215.43,19733.51 3741.17,28243.52 2430.87,8419.1 6359.78,15618.82 11689.91,21512.19 5424.99,5891.4 12346.04,10381.58 20856.06,13466.61 8511.99,3087 18612.94,4677.94 30490.59,4677.94 12065.41,0 22632.76,-841.91 31798.91,-2618.62 9073.26,-1778.68 17022,-3648.28 23662.42,-5798.51 6640.42,-2152.21 12158.29,-4021.8 16553.62,-5800.49 4397.3,-1776.71 7950.72,-2618.62 10662.22,-2618.62 1683.82,0 3087,280.64 4116.66,936.77 1120.57,654.16 2057.34,1776.71 2804.39,3460.53 656.14,1588.96 1215.43,3926.94 1496.07,6921.06 280.64,2992.14 375.5,6826.19 375.5,11316.38 0,4021.8 -94.86,7482.33 -280.64,10286.72 -187.75,2806.37 -468.39,5239.21 -841.91,7201.69 -373.52,2057.34 -841.91,3741.17 -1590.93,5051.46 -747.05,1403.18 -1681.84,2711.5 -2899.25,4021.8 -1215.43,1215.43 -4395.33,2992.14 -9725.45,5237.24 -5332.1,2245.09 -12065.41,4395.33 -20296.76,6547.53 -8229.38,2150.23 -17583.28,4019.83 -28150.64,5610.76 -10569.33,1588.96 -21885.72,2430.87 -33951.12,2430.87 -21790.85,0 -40777.32,-2711.5 -57145.16,-8229.38 -16272.98,-5424.99 -29927.34,-13749.23 -40963.09,-24877.86 -10942.86,-11130.61 -19079.35,-25253.36 -24504.33,-42180.5 -5332.1,-17022 -8043.6,-36943.26 -8043.6,-59763.78 0,-21697.97 2806.37,-41245.7 8510.01,-58736.09 5612.74,-17395.53 13842.11,-32172.44 24692.08,-44330.73 10755.11,-12158.29 23848.2,-21417.33 39281.24,-27777.11 15525.93,-6454.65 32921.46,-9634.54 52281.45,-9634.54 20482.53,0 37970.95,2994.12 52469.2,9073.26 14589.16,5984.28 26466.82,14403.39 35820.72,25065.61 9259.04,10660.25 16180.09,23381.79 20575.42,37970.95 4395.33,14591.14 6547.53,30490.59 6547.53,47698.37l0 10942.86zm-66779.7 -19640.62c561.27,-19359.99 -3365.67,-34605.28 -11689.91,-45641.03 -8324.24,-11128.63 -21136.69,-16648.48 -38534.2,-16648.48 -8790.65,0 -16460.73,1683.82 -22913.4,4958.58 -6547.53,3272.78 -11970.54,7668.1 -16272.98,13280.84 -4302.44,5610.76 -7575.22,12158.29 -9820.31,19733.51 -2337.98,7668.1 -3648.28,15711.71 -4021.8,24316.58l103252.6 0zm280862.08 -72856.87c0,6545.56 -187.75,11970.54 -561.27,16180.09 -375.5,4207.58 -936.77,7482.33 -1590.93,9820.31 -749.02,2337.98 -1776.71,4021.8 -2899.25,4956.6 -1215.43,934.8 -2711.5,1310.3 -4583.08,1310.3 -1403.18,0 -3087,-280.64 -4956.6,-936.77 -1776.71,-654.16 -3834.05,-1308.32 -6172.03,-2057.34 -2245.09,-747.05 -4770.83,-1403.18 -7482.33,-2057.34 -2806.37,-654.16 -5798.51,-934.8 -9073.26,-934.8 -3834.05,0 -7668.1,747.05 -11504.13,2337.98 -3834.05,1588.96 -7855.85,3928.91 -11970.54,7294.58 -4114.69,3272.78 -8417.13,7670.08 -12907.32,13093.09 -4488.21,5519.85 -9259.04,12253.16 -14403.39,20296.76l0 152541.9c0,1776.71 -559.3,3367.64 -1681.84,4768.85 -1029.66,1403.18 -2899.25,2525.73 -5612.74,3460.53 -2618.62,841.91 -6172.03,1590.93 -10474.47,2059.32 -4395.33,466.41 -10008.06,654.16 -16741.37,654.16 -6733.31,0 -12346.04,-187.75 -16741.37,-654.16 -4302.44,-468.39 -7855.85,-1217.41 -10474.47,-2059.32 -2713.48,-934.8 -4583.08,-2057.34 -5612.74,-3460.53 -1122.55,-1401.21 -1683.82,-2992.14 -1683.82,-4768.85l0 -244665.87c0,-1776.71 468.39,-3367.64 1403.18,-4770.83 841.91,-1403.18 2525.73,-2523.75 4863.71,-3460.53 2432.84,-841.91 5424.99,-1588.96 9166.15,-2057.34 3741.17,-466.41 8510.01,-654.16 14122.75,-654.16 5891.4,0 10662.22,187.75 14496.27,654.16 3834.05,468.39 6828.17,1215.43 8978.4,2057.34 2057.34,936.77 3553.42,2057.34 4490.19,3460.53 934.8,1403.18 1401.21,2994.12 1401.21,4770.83l0 30488.62c6361.76,-9164.17 12440.91,-16646.5 18051.66,-22539.88 5705.62,-5891.4 11130.61,-10662.22 16180.09,-14122.75 5144.35,-3460.53 10288.7,-5891.4 15431.07,-7201.69 5051.46,-1401.21 10195.81,-2057.34 15340.16,-2057.34 2337.98,0 4956.6,94.86 7668.1,375.5 2711.5,280.64 5612.74,747.05 8511.99,1403.18 2899.25,654.16 5517.87,1401.21 7668.1,2150.23 2245.09,841.91 3834.05,1683.82 4863.71,2618.62 934.8,934.8 1683.82,1964.46 2150.23,2992.14 468.39,1122.55 841.91,2618.62 1217.41,4583.08 373.52,1871.57 654.16,4770.83 841.91,8604.88 185.77,3834.05 280.64,8978.4 280.64,15525.93zm207815.49 152634.79c0,13842.11 -2618.62,26095.27 -7855.85,36757.49 -5144.35,10567.36 -12533.79,19359.99 -22073.47,26561.68 -9539.67,7106.83 -20763.17,12438.93 -33763.37,15992.34 -13000.2,3553.42 -27028.09,5330.12 -42180.5,5330.12 -9164.17,0 -17956.8,-654.16 -26281.04,-2057.34 -8322.26,-1403.18 -15711.71,-3179.89 -22352.13,-5330.12 -6547.53,-2057.34 -12065.41,-4209.55 -16460.73,-6454.65 -4395.33,-2243.12 -7575.22,-4300.46 -9539.67,-6264.92 -2057.34,-1964.46 -3648.28,-4956.6 -4675.96,-9073.26 -1122.55,-4021.8 -1683.82,-10100.95 -1683.82,-18142.58 0,-5239.21 187.75,-9446.79 561.27,-12626.68 373.52,-3179.89 934.8,-5798.51 1588.96,-7670.08 749.02,-1869.59 1683.82,-3179.89 2806.37,-3834.05 1029.66,-654.16 2432.84,-934.8 4114.69,-934.8 1964.46,0 4958.58,1122.55 8885.51,3460.53 3928.91,2337.98 8792.63,4863.71 14684.02,7575.22 5798.51,2806.37 12626.68,5424.99 20389.65,7762.97 7760.99,2430.87 16646.5,3646.3 26466.82,3646.3 6174.01,0 11784.77,-654.16 16555.59,-1962.48 4861.74,-1217.41 9071.29,-3087 12624.7,-5517.87 3555.39,-2339.96 6266.9,-5332.1 8136.49,-9073.26 1778.68,-3648.28 2713.48,-7855.85 2713.48,-12626.68 0,-5517.87 -1683.82,-10193.83 -5051.46,-14120.77 -3460.53,-3928.91 -7948.74,-7389.44 -13466.61,-10288.7 -5612.74,-2899.25 -11972.52,-5612.74 -18986.46,-8231.35 -7013.94,-2523.75 -14310.5,-5330.12 -21697.97,-8510.01 -7389.44,-3087 -14684.02,-6640.42 -21697.97,-10662.22 -7015.92,-4021.8 -13375.7,-8885.51 -18986.46,-14776.91 -5517.87,-5798.51 -10008.06,-12907.32 -13468.59,-21043.81 -3365.67,-8231.35 -5049.49,-18144.55 -5049.49,-29648.68 0,-11689.91 2337.98,-22352.13 6921.06,-32172.44 4583.08,-9727.42 11128.63,-18144.55 19733.51,-25065.61 8697.76,-6921.06 19174.21,-12346.04 31518.28,-16180.09 12438.93,-3834.05 26281.04,-5705.62 41714.09,-5705.62 7762.97,0 15150.43,561.27 22445.01,1590.93 7201.69,1122.55 13842.11,2525.73 19640.62,4114.69 5893.37,1683.82 10849.97,3367.64 14871.77,5332.1 4021.8,1869.59 6921.06,3553.42 8697.76,4861.74 1776.71,1403.18 2992.14,2713.48 3741.17,4116.66 654.16,1403.18 1215.43,2992.14 1588.96,4956.6 375.5,1869.59 749.02,4302.44 1029.66,7106.83 280.64,2806.37 373.52,6359.78 373.52,10569.33 0,4956.6 -92.89,8978.4 -373.52,12065.41 -280.64,3085.03 -749.02,5610.76 -1403.18,7387.47 -654.16,1871.57 -1496.07,3087 -2618.62,3741.17 -1122.55,656.14 -2430.87,936.77 -3834.05,936.77 -1683.82,0 -4302.44,-936.77 -7762.97,-2899.25 -3460.53,-1871.57 -7855.85,-3928.91 -13093.09,-6081.12 -5239.21,-2150.23 -11318.36,-4207.58 -18144.55,-6079.15 -6921.06,-1962.48 -14776.91,-2899.25 -23569.54,-2899.25 -6266.9,0 -11689.91,656.14 -16272.98,1871.57 -4583.08,1308.32 -8324.24,3179.89 -11316.38,5517.87 -2899.25,2337.98 -5144.35,5144.35 -6547.53,8324.24 -1496.07,3179.89 -2245.09,6640.42 -2245.09,10193.83 0,5705.62 1776.71,10474.47 5237.24,14310.5 3460.53,3834.05 8043.6,7201.69 13749.23,10100.95 5610.76,2899.25 12158.29,5703.65 19359.99,8229.38 7201.69,2525.73 14591.14,5332.1 21978.6,8324.24 7389.44,2992.14 14776.91,6547.53 21978.6,10569.33 7201.69,4019.83 13749.23,8978.4 19359.99,14776.91 5705.62,5891.4 10288.7,12812.45 13749.23,20948.94 3460.53,8136.49 5237.24,17771.03 5237.24,28899.66zm425358.41 -168441.36c0,20014.15 -3085.03,37597.42 -9351.92,52935.61 -6172.03,15433.05 -15245.3,28338.39 -27215.84,38814.83 -11877.66,10567.36 -26468.79,18518.08 -43771.43,24035.95 -17302.64,5517.87 -37690.31,8229.38 -61166.96,8229.38l-29646.71 0 0 113074.88c0,1869.59 -561.27,3460.53 -1776.71,4956.6 -1217.41,1403.18 -3179.89,2618.62 -5893.37,3553.42 -2711.5,936.77 -6359.78,1590.93 -10942.86,2152.21 -4488.21,561.27 -10381.58,841.91 -17395.53,841.91 -6921.06,0 -12719.57,-280.64 -17395.53,-841.91 -4675.96,-561.27 -8324.24,-1310.3 -11035.75,-2152.21 -2713.48,-934.8 -4677.94,-2150.23 -5705.62,-3553.42 -1122.55,-1496.07 -1683.82,-3179.89 -1683.82,-4956.6l0 -319020.78c0,-8602.9 2245.09,-15057.55 6733.31,-19359.99 4490.19,-4302.44 10381.58,-6452.67 17678.14,-6452.67l83611.97 0c8417.13,0 16460.73,280.64 24035.95,934.8 7577.19,656.14 16648.48,2057.34 27310.7,4116.66 10567.36,2150.23 21324.44,5984.28 32172.44,11689.91 10849.97,5610.76 20201.9,12812.45 27871.98,21510.22 7668.1,8699.74 13561.48,18800.69 17583.28,30490.59 4021.8,11597.02 5984.28,24597.22 5984.28,39000.61zm-75194.85 5237.24c0,-12438.93 -2245.09,-22725.65 -6640.42,-30769.25 -4395.33,-8043.6 -9820.31,-14029.86 -16272.98,-17863.91 -6454.65,-3834.05 -13187.95,-6266.9 -20201.9,-7294.58 -7108.81,-1029.66 -14403.39,-1498.05 -21978.6,-1498.05l-30864.12 0 0 120650.1 32545.96 0c11598.99,0 21231.56,-1588.96 29087.41,-4675.96 7762.97,-3087 14215.64,-7482.33 19174.21,-13093.09 4956.6,-5519.85 8697.76,-12253.16 11316.38,-20016.12 2523.75,-7762.97 3834.05,-16272.98 3834.05,-25439.13zm284041.97 10569.33c0,6545.56 -187.75,11970.54 -561.27,16180.09 -375.5,4207.58 -936.77,7482.33 -1590.93,9820.31 -749.02,2337.98 -1776.71,4021.8 -2899.25,4956.6 -1215.43,934.8 -2711.5,1310.3 -4583.08,1310.3 -1403.18,0 -3087,-280.64 -4956.6,-936.77 -1776.71,-654.16 -3834.05,-1308.32 -6172.03,-2057.34 -2245.09,-747.05 -4770.83,-1403.18 -7482.33,-2057.34 -2806.37,-654.16 -5798.51,-934.8 -9073.26,-934.8 -3834.05,0 -7668.1,747.05 -11504.13,2337.98 -3834.05,1588.96 -7855.85,3928.91 -11970.54,7294.58 -4114.69,3272.78 -8417.13,7670.08 -12907.32,13093.09 -4488.21,5519.85 -9259.04,12253.16 -14403.39,20296.76l0 152541.9c0,1776.71 -559.3,3367.64 -1681.84,4768.85 -1029.66,1403.18 -2899.25,2525.73 -5612.74,3460.53 -2618.62,841.91 -6172.03,1590.93 -10474.47,2059.32 -4395.33,466.41 -10008.06,654.16 -16741.37,654.16 -6733.31,0 -12346.04,-187.75 -16741.37,-654.16 -4302.44,-468.39 -7855.85,-1217.41 -10474.47,-2059.32 -2713.48,-934.8 -4583.08,-2057.34 -5612.74,-3460.53 -1122.55,-1401.21 -1683.82,-2992.14 -1683.82,-4768.85l0 -244665.87c0,-1776.71 468.39,-3367.64 1403.18,-4770.83 841.91,-1403.18 2525.73,-2523.75 4863.71,-3460.53 2432.84,-841.91 5424.99,-1588.96 9166.15,-2057.34 3741.17,-466.41 8510.01,-654.16 14122.75,-654.16 5891.4,0 10662.22,187.75 14496.27,654.16 3834.05,468.39 6828.17,1215.43 8978.4,2057.34 2057.34,936.77 3553.42,2057.34 4490.19,3460.53 934.8,1403.18 1401.21,2994.12 1401.21,4770.83l0 30488.62c6361.76,-9164.17 12440.91,-16646.5 18051.66,-22539.88 5705.62,-5891.4 11130.61,-10662.22 16180.09,-14122.75 5144.35,-3460.53 10288.7,-5891.4 15431.07,-7201.69 5051.46,-1401.21 10195.81,-2057.34 15340.16,-2057.34 2337.98,0 4956.6,94.86 7668.1,375.5 2711.5,280.64 5612.74,747.05 8511.99,1403.18 2899.25,654.16 5517.87,1401.21 7668.1,2150.23 2245.09,841.91 3834.05,1683.82 4863.71,2618.62 934.8,934.8 1683.82,1964.46 2150.23,2992.14 468.39,1122.55 841.91,2618.62 1217.41,4583.08 373.52,1871.57 654.16,4770.83 841.91,8604.88 185.77,3834.05 280.64,8978.4 280.64,15525.93zm111389.09 221845.35c0,1776.71 -559.3,3367.64 -1681.84,4768.85 -1029.66,1403.18 -2899.25,2525.73 -5612.74,3460.53 -2618.62,841.91 -6172.03,1590.93 -10474.47,2059.32 -4395.33,466.41 -10008.06,654.16 -16741.37,654.16 -6733.31,0 -12346.04,-187.75 -16741.37,-654.16 -4302.44,-468.39 -7855.85,-1217.41 -10474.47,-2059.32 -2713.48,-934.8 -4583.08,-2057.34 -5612.74,-3460.53 -1122.55,-1401.21 -1683.82,-2992.14 -1683.82,-4768.85l0 -244104.59c0,-1776.71 561.27,-3367.64 1683.82,-4770.83 1029.66,-1403.18 2899.25,-2618.62 5612.74,-3553.42 2618.62,-1029.66 6172.03,-1776.71 10474.47,-2337.98 4395.33,-561.27 10008.06,-841.91 16741.37,-841.91 6733.31,0 12346.04,280.64 16741.37,841.91 4302.44,561.27 7855.85,1308.32 10474.47,2337.98 2713.48,934.8 4583.08,2150.23 5612.74,3553.42 1122.55,1403.18 1681.84,2994.12 1681.84,4770.83l0 244104.59zm5612.74 -327718.54c0,13935 -2806.37,23476.65 -8511.99,28806.77 -5703.65,5330.12 -16180.09,7948.74 -31611.16,7948.74 -15525.93,0 -26093.29,-2523.75 -31425.39,-7668.1 -5424.99,-5144.35 -8136.49,-14403.39 -8136.49,-27684.23 0,-13935 2806.37,-23569.54 8417.13,-28992.55 5517.87,-5332.1 16087.21,-8043.6 31706.03,-8043.6 15338.18,0 25812.66,2618.62 31330.53,7855.85 5517.87,5144.35 8231.35,14403.39 8231.35,27777.11z"/>
    <path class="fil1" d="M6016178.71 3129627.81c0,934.8 0,2057.34 -94.86,3365.67 -92.89,1217.41 -280.64,2620.59 -561.27,4209.55 -280.64,1590.93 -654.16,3367.64 -1122.55,5332.1 -466.41,2057.34 -1027.68,4300.46 -1776.71,6826.19l-73418.14 221378.94c-841.91,3085.03 -2150.23,5610.76 -3648.28,7482.33 -1588.96,1962.48 -4114.69,3460.53 -7668.1,4581.1 -3553.42,1029.66 -8417.13,1778.68 -14496.27,2152.21 -6079.15,373.52 -14122.75,561.27 -23943.06,561.27 -9634.54,0 -17583.28,-187.75 -23662.42,-654.16 -6079.15,-468.39 -10942.86,-1310.3 -14403.39,-2339.96 -3460.53,-1120.57 -5986.26,-2618.62 -7482.33,-4581.1 -1588.96,-1871.57 -2806.37,-4302.44 -3741.17,-7201.69l-73230.39 -221378.94c-1122.55,-3646.3 -1964.46,-6921.06 -2618.62,-9820.31 -656.14,-2899.25 -1029.66,-5049.49 -1122.55,-6359.78 -94.86,-1215.43 -94.86,-2430.87 -94.86,-3553.42 0,-1776.71 468.39,-3367.64 1498.05,-4770.83 1027.68,-1403.18 2804.39,-2523.75 5330.12,-3460.53 2525.73,-841.91 6079.15,-1496.07 10474.47,-1869.59 4490.19,-373.52 10100.95,-561.27 16836.23,-561.27 7480.35,0 13466.61,187.75 18049.69,654.16 4490.19,468.39 8136.49,1122.55 10755.11,1964.46 2618.62,841.91 4490.19,1964.46 5612.74,3553.42 1027.68,1590.93 1964.46,3460.53 2711.5,5612.74l55554.23 179664.85 1683.82 6826.19 1590.93 -6826.19 54526.54 -179664.85c561.27,-2152.21 1401.21,-4021.8 2618.62,-5612.74 1215.43,-1588.96 3085.03,-2711.5 5610.76,-3553.42 2618.62,-841.91 5986.26,-1496.07 10288.7,-1964.46 4395.33,-466.41 10006.08,-654.16 16927.14,-654.16 6828.17,0 12346.04,187.75 16648.48,561.27 4302.44,373.52 7670.08,1027.68 10008.06,1869.59 2430.87,936.77 4021.8,2057.34 4956.6,3460.53 934.8,1403.18 1403.18,2994.12 1403.18,4770.83zm240736.95 245788.41c0,2525.73 -934.8,4488.21 -2711.5,5986.26 -1871.57,1496.07 -4770.83,2523.75 -8697.76,3179.89 -3928.91,654.16 -9727.42,934.8 -17490.39,934.8 -8229.38,0 -14215.64,-280.64 -17956.8,-934.8 -3741.17,-656.14 -6452.67,-1683.82 -7948.74,-3179.89 -1590.93,-1498.05 -2339.96,-3460.53 -2339.96,-5986.26l0 -19454.85c-10100.95,10757.08 -21510.22,19081.32 -34417.53,25065.61 -12812.45,5986.26 -27122.95,8978.4 -42834.66,8978.4 -12907.32,0 -24877.86,-1681.84 -35727.83,-5049.49 -10848,-3367.64 -20201.9,-8417.13 -28150.64,-15057.55 -7950.72,-6735.28 -14122.75,-14964.66 -18518.08,-24784.97 -4397.3,-9913.2 -6547.53,-21417.33 -6547.53,-34512.4 0,-14308.52 2806.37,-26654.57 8324.24,-37129.04 5610.76,-10569.33 13935,-19174.21 24970.74,-26093.29 11037.72,-6828.17 24692.08,-11879.63 41152.82,-15152.41 16365.87,-3272.78 35447.19,-4956.6 57145.16,-4956.6l23848.2 0 0 -14776.91c0,-7670.08 -747.05,-14403.39 -2337.98,-20201.9 -1496.07,-5705.62 -4114.69,-10569.33 -7668.1,-14403.39 -3555.39,-3834.05 -8231.35,-6640.42 -14217.61,-8511.99 -5891.4,-1776.71 -13280.84,-2711.5 -21978.6,-2711.5 -11504.13,0 -21790.85,1310.3 -30769.25,3834.05 -9073.26,2525.73 -17022,5424.99 -23943.06,8511.99 -6921.06,3085.03 -12719.57,5986.26 -17395.53,8510.01 -4677.94,2525.73 -8419.1,3836.03 -11318.36,3836.03 -2057.34,0 -3834.05,-656.14 -5330.12,-1871.57 -1590.93,-1308.32 -2899.25,-3179.89 -3834.05,-5517.87 -1029.66,-2337.98 -1778.68,-5330.12 -2337.98,-8790.65 -561.27,-3460.53 -841.91,-7296.56 -841.91,-11411.24 0,-5705.62 466.41,-10193.83 1401.21,-13468.59 841.91,-3272.78 2620.59,-6172.03 5144.35,-8883.54 2618.62,-2618.62 7015.92,-5517.87 13468.59,-8697.76 6359.78,-3181.87 13842.11,-6174.01 22446.99,-8885.51 8602.9,-2806.37 17956.8,-5051.46 28057.75,-6735.28 10193.83,-1776.71 20668.31,-2618.62 31425.39,-2618.62 19172.24,0 35540.08,1871.57 49194.44,5612.74 13561.48,3741.17 24784.97,9539.67 33482.74,17302.64 8790.65,7762.97 15245.3,17769.05 19267.1,30022.21 4021.8,12158.29 5984.28,26747.45 5984.28,43488.82l0 164514.42zm-67900.27 -104936.42l-26281.04 0c-11128.63,0 -20575.42,839.93 -28431.27,2430.87 -7855.85,1683.82 -14215.64,4114.69 -19174.21,7482.33 -4956.6,3272.78 -8510.01,7201.69 -10755.11,11877.66 -2337.98,4675.96 -3460.53,10008.06 -3460.53,15992.34 0,10288.7 3272.78,18332.3 9727.42,24130.81 6452.67,5891.4 15431.07,8790.65 26935.2,8790.65 9632.56,0 18518.08,-2430.87 26654.57,-7387.47 8138.47,-4956.6 16367.84,-12158.29 24784.97,-21697.97l0 -41619.23zm368495.86 104094.51c0,1964.46 -468.39,3648.28 -1403.18,5049.49 -841.91,1403.18 -2430.87,2525.73 -4583.08,3460.53 -2245.09,841.91 -5237.24,1498.05 -8978.4,1871.57 -3741.17,373.52 -8324.24,561.27 -13747.25,561.27 -5893.37,0 -10662.22,-187.75 -14310.5,-561.27 -3648.28,-373.52 -6547.53,-1029.66 -8885.51,-1871.57 -2245.09,-934.8 -3926.94,-2150.23 -4863.71,-3460.53 -1027.68,-1401.21 -1588.96,-3085.03 -1588.96,-5142.37l0 -27217.82c-12533.79,13561.48 -25814.63,24037.92 -39561.88,31520.25 -13842.11,7480.35 -29087.41,11221.52 -45921.66,11221.52 -18612.94,0 -34417.53,-3646.3 -47231.96,-10848 -12905.34,-7201.69 -23381.79,-16929.12 -31518.28,-29180.3 -8136.49,-12158.29 -14027.89,-26468.79 -17676.16,-42836.64 -3648.28,-16365.87 -5517.87,-33575.62 -5517.87,-51625.31 0,-21697.97 2337.98,-41245.7 7013.94,-58641.23 4675.96,-17302.64 11411.24,-32079.55 20389.65,-44332.71 8978.4,-12251.18 20107.03,-21605.08 33482.74,-28245.5 13280.84,-6545.56 28619.02,-9820.31 46014.55,-9820.31 13654.36,0 26093.29,2806.37 37223.9,8324.24 11223.5,5612.74 22259.24,13749.23 33202.1,24504.33l0 -132154.23c0,-1869.59 466.41,-3460.53 1496.07,-4956.6 1029.66,-1403.18 2806.37,-2711.5 5517.87,-3646.3 2618.62,-1029.66 6174.01,-1776.71 10474.47,-2337.98 4397.3,-561.27 10008.06,-841.91 16741.37,-841.91 6735.28,0 12346.04,280.64 16741.37,841.91 4302.44,561.27 7857.83,1308.32 10381.58,2337.98 2525.73,934.8 4397.3,2243.12 5424.99,3646.3 1122.55,1496.07 1683.82,3087 1683.82,4956.6l0 359424.57zm-68461.54 -163391.87c-9820.31,-12438.93 -19359.99,-21885.72 -28338.39,-28526.14 -9073.26,-6545.56 -18518.08,-9820.31 -28433.25,-9820.31 -8883.54,0 -16646.5,2245.09 -23101.15,6735.28 -6545.56,4488.21 -11689.91,10381.58 -15618.82,17863.91 -3926.94,7575.22 -6921.06,15899.46 -8790.65,25063.63 -1964.46,9259.04 -2899.25,18705.83 -2899.25,28340.36 0,10286.72 841.91,20199.92 2430.87,29834.46 1683.82,9725.45 4395.33,18330.33 8136.49,25907.52 3741.17,7575.22 8697.76,13654.36 14964.66,18237.44 6174.01,4583.08 14029.86,6826.19 23569.54,6826.19 4675.96,0 9351.92,-654.16 13842.11,-2057.34 4488.21,-1403.18 8978.4,-3553.42 13654.36,-6733.31 4675.96,-3087 9446.79,-7108.81 14403.39,-12158.29 4956.6,-5051.46 10381.58,-11130.61 16180.09,-18425.19l0 -81088.22zm384768.84 38627.08c0,20763.17 -2711.5,39749.63 -8229.38,56957.41 -5517.87,17114.89 -13749.23,31893.78 -24972.72,44332.71 -11128.63,12438.93 -25063.63,21978.6 -41899.86,28804.8 -16834.25,6735.28 -36474.88,10100.95 -58921.87,10100.95 -21790.85,0 -40684.43,-2992.14 -56769.66,-9071.29 -16087.21,-5986.26 -29460.93,-14776.91 -40030.27,-26281.04 -10567.36,-11504.13 -18425.19,-25626.88 -23567.56,-42461.14 -5144.35,-16741.37 -7670.08,-35913.6 -7670.08,-57518.68 0,-20763.17 2806.37,-39842.52 8324.24,-57052.27 5610.76,-17302.64 13935,-32079.55 25158.49,-44425.59 11128.63,-12251.18 25065.61,-21790.85 41806.98,-28619.02 16646.5,-6733.31 36287.13,-10100.95 58734.12,-10100.95 21978.6,0 40965.07,2994.12 57052.27,8885.51 16085.23,5986.26 29366.07,14684.02 39842.52,26188.16 10567.36,11504.13 18330.33,25626.88 23474.67,42461.14 5144.35,16741.37 7668.1,36006.49 7668.1,57799.32zm-70704.66 2711.5c0,-12063.43 -936.77,-23194.04 -2899.25,-33294.99 -1964.46,-10193.83 -5144.35,-18986.46 -9820.31,-26468.79 -4583.08,-7480.35 -10662.22,-13373.73 -18239.41,-17581.3 -7668.1,-4209.55 -17207.78,-6266.9 -28804.8,-6266.9 -10288.7,0 -19267.1,1869.59 -27030.07,5610.76 -7670.08,3741.17 -14029.86,9259.04 -18986.46,16460.73 -4956.6,7201.69 -8697.76,15899.46 -11128.63,26000.41 -2525.73,10195.81 -3741.17,21697.97 -3741.17,34698.17 0,12065.41 1027.68,23196.01 2992.14,33296.96 2057.34,10193.83 5332.1,18984.49 9820.31,26466.82 4490.19,7482.33 10569.33,13280.84 18332.3,17397.5 7668.1,4114.69 17207.78,6172.03 28619.02,6172.03 10474.47,0 19545.76,-1871.57 27308.73,-5610.76 7670.08,-3741.17 14029.86,-9166.15 18986.46,-16274.96 4956.6,-7201.69 8604.88,-15806.57 11035.75,-25907.52 2337.98,-10193.83 3555.39,-21697.97 3555.39,-34698.17zm297789.22 52842.72c0,13842.11 -2618.62,26095.27 -7855.85,36757.49 -5144.35,10567.36 -12533.79,19359.99 -22073.47,26561.68 -9539.67,7106.83 -20763.17,12438.93 -33763.37,15992.34 -13000.2,3553.42 -27028.09,5330.12 -42180.5,5330.12 -9164.17,0 -17956.8,-654.16 -26281.04,-2057.34 -8322.26,-1403.18 -15711.71,-3179.89 -22352.13,-5330.12 -6547.53,-2057.34 -12065.41,-4209.55 -16460.73,-6454.65 -4395.33,-2243.12 -7575.22,-4300.46 -9539.67,-6264.92 -2057.34,-1964.46 -3648.28,-4956.6 -4675.96,-9073.26 -1122.55,-4021.8 -1683.82,-10100.95 -1683.82,-18142.58 0,-5239.21 187.75,-9446.79 561.27,-12626.68 373.52,-3179.89 934.8,-5798.51 1588.96,-7670.08 749.02,-1869.59 1683.82,-3179.89 2806.37,-3834.05 1029.66,-654.16 2432.84,-934.8 4114.69,-934.8 1964.46,0 4958.58,1122.55 8885.51,3460.53 3928.91,2337.98 8792.63,4863.71 14684.02,7575.22 5798.51,2806.37 12626.68,5424.99 20389.65,7762.97 7760.99,2430.87 16646.5,3646.3 26466.82,3646.3 6174.01,0 11784.77,-654.16 16555.59,-1962.48 4861.74,-1217.41 9071.29,-3087 12624.7,-5517.87 3555.39,-2339.96 6266.9,-5332.1 8136.49,-9073.26 1778.68,-3648.28 2713.48,-7855.85 2713.48,-12626.68 0,-5517.87 -1683.82,-10193.83 -5051.46,-14120.77 -3460.53,-3928.91 -7948.74,-7389.44 -13466.61,-10288.7 -5612.74,-2899.25 -11972.52,-5612.74 -18986.46,-8231.35 -7013.94,-2523.75 -14310.5,-5330.12 -21697.97,-8510.01 -7389.44,-3087 -14684.02,-6640.42 -21697.97,-10662.22 -7015.92,-4021.8 -13375.7,-8885.51 -18986.46,-14776.91 -5517.87,-5798.51 -10008.06,-12907.32 -13468.59,-21043.81 -3365.67,-8231.35 -5049.49,-18144.55 -5049.49,-29648.68 0,-11689.91 2337.98,-22352.13 6921.06,-32172.44 4583.08,-9727.42 11128.63,-18144.55 19733.51,-25065.61 8697.76,-6921.06 19174.21,-12346.04 31518.28,-16180.09 12438.93,-3834.05 26281.04,-5705.62 41714.09,-5705.62 7762.97,0 15150.43,561.27 22445.01,1590.93 7201.69,1122.55 13842.11,2525.73 19640.62,4114.69 5893.37,1683.82 10849.97,3367.64 14871.77,5332.1 4021.8,1869.59 6921.06,3553.42 8697.76,4861.74 1776.71,1403.18 2992.14,2713.48 3741.17,4116.66 654.16,1403.18 1215.43,2992.14 1588.96,4956.6 375.5,1869.59 749.02,4302.44 1029.66,7106.83 280.64,2806.37 373.52,6359.78 373.52,10569.33 0,4956.6 -92.89,8978.4 -373.52,12065.41 -280.64,3085.03 -749.02,5610.76 -1403.18,7387.47 -654.16,1871.57 -1496.07,3087 -2618.62,3741.17 -1122.55,656.14 -2430.87,936.77 -3834.05,936.77 -1683.82,0 -4302.44,-936.77 -7762.97,-2899.25 -3460.53,-1871.57 -7855.85,-3928.91 -13093.09,-6081.12 -5239.21,-2150.23 -11318.36,-4207.58 -18144.55,-6079.15 -6921.06,-1962.48 -14776.91,-2899.25 -23569.54,-2899.25 -6266.9,0 -11689.91,656.14 -16272.98,1871.57 -4583.08,1308.32 -8324.24,3179.89 -11316.38,5517.87 -2899.25,2337.98 -5144.35,5144.35 -6547.53,8324.24 -1496.07,3179.89 -2245.09,6640.42 -2245.09,10193.83 0,5705.62 1776.71,10474.47 5237.24,14310.5 3460.53,3834.05 8043.6,7201.69 13749.23,10100.95 5610.76,2899.25 12158.29,5703.65 19359.99,8229.38 7201.69,2525.73 14591.14,5332.1 21978.6,8324.24 7389.44,2992.14 14776.91,6547.53 21978.6,10569.33 7201.69,4019.83 13749.23,8978.4 19359.99,14776.91 5705.62,5891.4 10288.7,12812.45 13749.23,20948.94 3460.53,8136.49 5237.24,17771.03 5237.24,28899.66zm299658.82 -59576.03c0,10662.22 -1027.68,18051.66 -2992.14,22259.24 -2057.34,4209.55 -5237.24,6359.78 -9634.54,6359.78l-114195.45 0c-4583.08,0 -7855.85,-2150.23 -9913.2,-6452.67 -1964.46,-4302.44 -2994.12,-11691.88 -2994.12,-22166.35 0,-10288.7 1029.66,-17490.39 2994.12,-21697.97 2057.34,-4209.55 5330.12,-6359.78 9913.2,-6359.78l114195.45 0c2245.09,0 4116.66,466.41 5612.74,1403.18 1588.96,934.8 2899.25,2430.87 4021.8,4675.96 1027.68,2150.23 1869.59,5144.35 2337.98,8790.65 468.39,3648.28 654.16,8043.6 654.16,13187.95zm417036.14 -187054.3c0,5332.1 -187.75,9820.31 -654.16,13656.34 -468.39,3741.17 -1122.55,6733.31 -2057.34,8978.4 -936.77,2337.98 -2057.34,4021.8 -3460.53,5049.49 -1310.3,1122.55 -2899.25,1683.82 -4490.19,1683.82l-88663.44 0 0 285911.57c0,1776.71 -561.27,3460.53 -1776.71,4956.6 -1215.43,1403.18 -3179.89,2618.62 -5891.4,3553.42 -2713.48,841.91 -6454.65,1590.93 -11130.61,2152.21 -4675.96,561.27 -10474.47,841.91 -17395.53,841.91 -6921.06,0 -12719.57,-280.64 -17395.53,-841.91 -4677.94,-561.27 -8417.13,-1310.3 -11130.61,-2152.21 -2711.5,-934.8 -4675.96,-2150.23 -5891.4,-3553.42 -1215.43,-1496.07 -1776.71,-3179.89 -1776.71,-4956.6l0 -285911.57 -88663.44 0c-1778.68,0 -3367.64,-561.27 -4677.94,-1683.82 -1215.43,-1027.68 -2337.98,-2711.5 -3272.78,-5049.49 -841.91,-2245.09 -1588.96,-5237.24 -2057.34,-8978.4 -468.39,-3836.03 -654.16,-8324.24 -654.16,-13656.34 0,-5423.01 185.77,-10100.95 654.16,-13935 468.39,-3834.05 1215.43,-6921.06 2057.34,-9166.15 934.8,-2337.98 2057.34,-3926.94 3272.78,-4956.6 1310.3,-1027.68 2899.25,-1496.07 4677.94,-1496.07l249715.35 0c1590.93,0 3087,468.39 4490.19,1496.07 1403.18,1029.66 2523.75,2618.62 3460.53,4956.6 934.8,2245.09 1588.96,5332.1 2057.34,9166.15 466.41,3834.05 654.16,8511.99 654.16,13935zm236622.26 191076.1c0,20763.17 -2711.5,39749.63 -8229.38,56957.41 -5517.87,17114.89 -13749.23,31893.78 -24972.72,44332.71 -11128.63,12438.93 -25063.63,21978.6 -41899.86,28804.8 -16834.25,6735.28 -36474.88,10100.95 -58921.87,10100.95 -21790.85,0 -40684.43,-2992.14 -56769.66,-9071.29 -16087.21,-5986.26 -29460.93,-14776.91 -40030.27,-26281.04 -10567.36,-11504.13 -18425.19,-25626.88 -23567.56,-42461.14 -5144.35,-16741.37 -7670.08,-35913.6 -7670.08,-57518.68 0,-20763.17 2806.37,-39842.52 8324.24,-57052.27 5610.76,-17302.64 13935,-32079.55 25158.49,-44425.59 11128.63,-12251.18 25065.61,-21790.85 41806.98,-28619.02 16646.5,-6733.31 36287.13,-10100.95 58734.12,-10100.95 21978.6,0 40965.07,2994.12 57052.27,8885.51 16085.23,5986.26 29366.07,14684.02 39842.52,26188.16 10567.36,11504.13 18330.33,25626.88 23474.67,42461.14 5144.35,16741.37 7668.1,36006.49 7668.1,57799.32zm-70704.66 2711.5c0,-12063.43 -936.77,-23194.04 -2899.25,-33294.99 -1964.46,-10193.83 -5144.35,-18986.46 -9820.31,-26468.79 -4583.08,-7480.35 -10662.22,-13373.73 -18239.41,-17581.3 -7668.1,-4209.55 -17207.78,-6266.9 -28804.8,-6266.9 -10288.7,0 -19267.1,1869.59 -27030.07,5610.76 -7670.08,3741.17 -14029.86,9259.04 -18986.46,16460.73 -4956.6,7201.69 -8697.76,15899.46 -11128.63,26000.41 -2525.73,10195.81 -3741.17,21697.97 -3741.17,34698.17 0,12065.41 1027.68,23196.01 2992.14,33296.96 2057.34,10193.83 5332.1,18984.49 9820.31,26466.82 4490.19,7482.33 10569.33,13280.84 18332.3,17397.5 7668.1,4114.69 17207.78,6172.03 28619.02,6172.03 10474.47,0 19545.76,-1871.57 27308.73,-5610.76 7670.08,-3741.17 14029.86,-9166.15 18986.46,-16274.96 4956.6,-7201.69 8604.88,-15806.57 11035.75,-25907.52 2337.98,-10193.83 3555.39,-21697.97 3555.39,-34698.17zm357272.36 122053.28c0,1776.71 -468.39,3367.64 -1403.18,4768.85 -841.91,1403.18 -2430.87,2525.73 -4768.85,3460.53 -2245.09,841.91 -5239.21,1590.93 -9073.26,2059.32 -3741.17,466.41 -8417.13,654.16 -14027.89,654.16 -6079.15,0 -10942.86,-187.75 -14684.02,-654.16 -3741.17,-468.39 -6735.28,-1217.41 -8885.51,-2059.32 -2245.09,-934.8 -3741.17,-2057.34 -4675.96,-3460.53 -934.8,-1401.21 -1403.18,-2992.14 -1403.18,-4768.85l0 -28245.5c-13468.59,14496.27 -27215.84,25439.13 -41245.7,32733.71 -14027.89,7296.56 -28526.14,10942.86 -43488.82,10942.86 -16836.23,0 -31051.87,-2711.5 -42463.11,-8229.38 -11409.27,-5424.99 -20668.31,-13000.2 -27682.25,-22446.99 -7015.92,-9539.67 -12065.41,-20482.53 -15152.41,-33014.35 -2992.14,-12533.79 -4488.21,-28152.61 -4488.21,-46763.57l0 -149642.65c0,-1776.71 466.41,-3367.64 1496.07,-4770.83 1027.68,-1403.18 2899.25,-2523.75 5517.87,-3460.53 2618.62,-841.91 6266.9,-1588.96 10755.11,-2057.34 4490.19,-466.41 10008.06,-654.16 16648.48,-654.16 6733.31,0 12346.04,187.75 16741.37,654.16 4395.33,468.39 7948.74,1215.43 10567.36,2057.34 2713.48,936.77 4583.08,2057.34 5612.74,3460.53 1122.55,1403.18 1683.82,2994.12 1683.82,4770.83l0 138138.52c0,12812.45 841.91,22539.88 2430.87,29273.18 1683.82,6828.17 4209.55,12626.68 7575.22,17397.5 3367.64,4863.71 7670.08,8602.9 12907.32,11316.38 5144.35,2618.62 11223.5,3926.94 18237.44,3926.94 8792.63,0 17583.28,-3179.89 26468.79,-9539.67 8790.65,-6359.78 18330.33,-15711.71 28338.39,-27870l0 -162642.85c0,-1776.71 466.41,-3367.64 1496.07,-4770.83 1029.66,-1403.18 2806.37,-2523.75 5517.87,-3460.53 2618.62,-841.91 6174.01,-1588.96 10474.47,-2057.34 4397.3,-466.41 10008.06,-654.16 16741.37,-654.16 6735.28,0 12346.04,187.75 16741.37,654.16 4302.44,468.39 7857.83,1215.43 10381.58,2057.34 2525.73,936.77 4397.3,2057.34 5424.99,3460.53 1122.55,1403.18 1683.82,2994.12 1683.82,4770.83l0 244665.87zm226523.29 -221845.35c0,6545.56 -187.75,11970.54 -561.27,16180.09 -375.5,4207.58 -936.77,7482.33 -1590.93,9820.31 -749.02,2337.98 -1776.71,4021.8 -2899.25,4956.6 -1215.43,934.8 -2711.5,1310.3 -4583.08,1310.3 -1403.18,0 -3087,-280.64 -4956.6,-936.77 -1776.71,-654.16 -3834.05,-1308.32 -6172.03,-2057.34 -2245.09,-747.05 -4770.83,-1403.18 -7482.33,-2057.34 -2806.37,-654.16 -5798.51,-934.8 -9073.26,-934.8 -3834.05,0 -7668.1,747.05 -11504.13,2337.98 -3834.05,1588.96 -7855.85,3928.91 -11970.54,7294.58 -4114.69,3272.78 -8417.13,7670.08 -12907.32,13093.09 -4488.21,5519.85 -9259.04,12253.16 -14403.39,20296.76l0 152541.9c0,1776.71 -559.3,3367.64 -1681.84,4768.85 -1029.66,1403.18 -2899.25,2525.73 -5612.74,3460.53 -2618.62,841.91 -6172.03,1590.93 -10474.47,2059.32 -4395.33,466.41 -10008.06,654.16 -16741.37,654.16 -6733.31,0 -12346.04,-187.75 -16741.37,-654.16 -4302.44,-468.39 -7855.85,-1217.41 -10474.47,-2059.32 -2713.48,-934.8 -4583.08,-2057.34 -5612.74,-3460.53 -1122.55,-1401.21 -1683.82,-2992.14 -1683.82,-4768.85l0 -244665.87c0,-1776.71 468.39,-3367.64 1403.18,-4770.83 841.91,-1403.18 2525.73,-2523.75 4863.71,-3460.53 2432.84,-841.91 5424.99,-1588.96 9166.15,-2057.34 3741.17,-466.41 8510.01,-654.16 14122.75,-654.16 5891.4,0 10662.22,187.75 14496.27,654.16 3834.05,468.39 6828.17,1215.43 8978.4,2057.34 2057.34,936.77 3553.42,2057.34 4490.19,3460.53 934.8,1403.18 1401.21,2994.12 1401.21,4770.83l0 30488.62c6361.76,-9164.17 12440.91,-16646.5 18051.66,-22539.88 5705.62,-5891.4 11130.61,-10662.22 16180.09,-14122.75 5144.35,-3460.53 10288.7,-5891.4 15431.07,-7201.69 5051.46,-1401.21 10195.81,-2057.34 15340.16,-2057.34 2337.98,0 4956.6,94.86 7668.1,375.5 2711.5,280.64 5612.74,747.05 8511.99,1403.18 2899.25,654.16 5517.87,1401.21 7668.1,2150.23 2245.09,841.91 3834.05,1683.82 4863.71,2618.62 934.8,934.8 1683.82,1964.46 2150.23,2992.14 468.39,1122.55 841.91,2618.62 1217.41,4583.08 373.52,1871.57 654.16,4770.83 841.91,8604.88 185.77,3834.05 280.64,8978.4 280.64,15525.93zm207815.49 152634.79c0,13842.11 -2618.62,26095.27 -7855.85,36757.49 -5144.35,10567.36 -12533.79,19359.99 -22073.47,26561.68 -9539.67,7106.83 -20763.17,12438.93 -33763.37,15992.34 -13000.2,3553.42 -27028.09,5330.12 -42180.5,5330.12 -9164.17,0 -17956.8,-654.16 -26281.04,-2057.34 -8322.26,-1403.18 -15711.71,-3179.89 -22352.13,-5330.12 -6547.53,-2057.34 -12065.41,-4209.55 -16460.73,-6454.65 -4395.33,-2243.12 -7575.22,-4300.46 -9539.67,-6264.92 -2057.34,-1964.46 -3648.28,-4956.6 -4675.96,-9073.26 -1122.55,-4021.8 -1683.82,-10100.95 -1683.82,-18142.58 0,-5239.21 187.75,-9446.79 561.27,-12626.68 373.52,-3179.89 934.8,-5798.51 1588.96,-7670.08 749.02,-1869.59 1683.82,-3179.89 2806.37,-3834.05 1029.66,-654.16 2432.84,-934.8 4114.69,-934.8 1964.46,0 4958.58,1122.55 8885.51,3460.53 3928.91,2337.98 8792.63,4863.71 14684.02,7575.22 5798.51,2806.37 12626.68,5424.99 20389.65,7762.97 7760.99,2430.87 16646.5,3646.3 26466.82,3646.3 6174.01,0 11784.77,-654.16 16555.59,-1962.48 4861.74,-1217.41 9071.29,-3087 12624.7,-5517.87 3555.39,-2339.96 6266.9,-5332.1 8136.49,-9073.26 1778.68,-3648.28 2713.48,-7855.85 2713.48,-12626.68 0,-5517.87 -1683.82,-10193.83 -5051.46,-14120.77 -3460.53,-3928.91 -7948.74,-7389.44 -13466.61,-10288.7 -5612.74,-2899.25 -11972.52,-5612.74 -18986.46,-8231.35 -7013.94,-2523.75 -14310.5,-5330.12 -21697.97,-8510.01 -7389.44,-3087 -14684.02,-6640.42 -21697.97,-10662.22 -7015.92,-4021.8 -13375.7,-8885.51 -18986.46,-14776.91 -5517.87,-5798.51 -10008.06,-12907.32 -13468.59,-21043.81 -3365.67,-8231.35 -5049.49,-18144.55 -5049.49,-29648.68 0,-11689.91 2337.98,-22352.13 6921.06,-32172.44 4583.08,-9727.42 11128.63,-18144.55 19733.51,-25065.61 8697.76,-6921.06 19174.21,-12346.04 31518.28,-16180.09 12438.93,-3834.05 26281.04,-5705.62 41714.09,-5705.62 7762.97,0 15150.43,561.27 22445.01,1590.93 7201.69,1122.55 13842.11,2525.73 19640.62,4114.69 5893.37,1683.82 10849.97,3367.64 14871.77,5332.1 4021.8,1869.59 6921.06,3553.42 8697.76,4861.74 1776.71,1403.18 2992.14,2713.48 3741.17,4116.66 654.16,1403.18 1215.43,2992.14 1588.96,4956.6 375.5,1869.59 749.02,4302.44 1029.66,7106.83 280.64,2806.37 373.52,6359.78 373.52,10569.33 0,4956.6 -92.89,8978.4 -373.52,12065.41 -280.64,3085.03 -749.02,5610.76 -1403.18,7387.47 -654.16,1871.57 -1496.07,3087 -2618.62,3741.17 -1122.55,656.14 -2430.87,936.77 -3834.05,936.77 -1683.82,0 -4302.44,-936.77 -7762.97,-2899.25 -3460.53,-1871.57 -7855.85,-3928.91 -13093.09,-6081.12 -5239.21,-2150.23 -11318.36,-4207.58 -18144.55,-6079.15 -6921.06,-1962.48 -14776.91,-2899.25 -23569.54,-2899.25 -6266.9,0 -11689.91,656.14 -16272.98,1871.57 -4583.08,1308.32 -8324.24,3179.89 -11316.38,5517.87 -2899.25,2337.98 -5144.35,5144.35 -6547.53,8324.24 -1496.07,3179.89 -2245.09,6640.42 -2245.09,10193.83 0,5705.62 1776.71,10474.47 5237.24,14310.5 3460.53,3834.05 8043.6,7201.69 13749.23,10100.95 5610.76,2899.25 12158.29,5703.65 19359.99,8229.38 7201.69,2525.73 14591.14,5332.1 21978.6,8324.24 7389.44,2992.14 14776.91,6547.53 21978.6,10569.33 7201.69,4019.83 13749.23,8978.4 19359.99,14776.91 5705.62,5891.4 10288.7,12812.45 13749.23,20948.94 3460.53,8136.49 5237.24,17771.03 5237.24,28899.66z"/>
   </g>
  </g>
 </g>
</svg>
