<?xml version="1.0" encoding="UTF-8"?>
<!DOCTYPE svg PUBLIC "-//W3C//DTD SVG 1.1//EN" "http://www.w3.org/Graphics/SVG/1.1/DTD/svg11.dtd">
<!-- Creator: CorelDRAW -->
<svg xmlns="http://www.w3.org/2000/svg" xml:space="preserve" width="680.564mm" height="175.091mm" version="1.1" style="shape-rendering:geometricPrecision; text-rendering:geometricPrecision; image-rendering:optimizeQuality; fill-rule:evenodd; clip-rule:evenodd"
viewBox="0 0 68042.14 17505.42"
 xmlns:xlink="http://www.w3.org/1999/xlink"
 xmlns:xodm="http://www.corel.com/coreldraw/odm/2003">
 <defs>
  <style type="text/css">
   <![CDATA[
    .fil0 {fill:#0288D1}
    .fil1 {fill:#0288D1;fill-rule:nonzero}
   ]]>
  </style>
 </defs>
 <g id="Camada_x0020_1">
  <metadata id="CorelCorpID_0Corel-Layer"/>
  <path class="fil0" d="M64673.76 3276.78c1851.18,0 3353.38,1493.23 3368.38,3340.87l-0.29 78.22c-16.26,1108.07 -2831.31,5422.34 -3579.15,6854.57 -613.85,-1350.78 -3157.68,-5907.9 -3157.68,-6904.93 0,-1858.99 1508.02,-3368.73 3368.73,-3368.73zm-0.18 1727.6c1024.28,0 1854.61,830.34 1854.61,1854.61 0,1024.28 -830.34,1854.61 -1854.61,1854.61 -1024.28,0 -1854.61,-830.34 -1854.61,-1854.61 0,-1024.28 830.34,-1854.61 1854.61,-1854.61z"/>
  <path class="fil0" d="M5188.4 11173.72c266.84,699.83 -1840.82,1382.36 -1853.25,2064.26 642.98,-16.05 1632.75,-1315.42 2141.73,-1285.86 1099.89,740.67 2874.36,7630.98 6840.72,4928.02 526.47,-472.42 892.82,-1195.02 939.71,-1900.53 17.65,-265.46 53.51,-495.03 -160.36,-513.97 -8.57,-0.76 -104.06,8.55 -116.5,9.47 -438.96,-403.34 -1115.61,3537.44 -3142.45,2137.36 -63.02,-52.83 -73.94,-51.87 -131.68,-82.1 -1358.08,-711.11 -3016.92,-3868.68 -3579.76,-5256.92 0.93,-1.83 3304.88,-2514.01 3619.74,-2745.37 160.3,-97.28 181.88,-76.47 197.73,-275.18 -138.51,-0.61 -115.55,-23.98 -216.93,38.48 -518.53,362.14 -3583.12,2617.76 -3862.24,2625.44 -634.53,-780.07 -1672.86,-5196.69 -2039.27,-6427.28 -192.47,-646.39 -428.22,-1363.38 267.29,-1760.7 452.59,-338.24 946.02,-646.56 1382.29,-982.88 603.12,-471.18 1199.11,-864.8 1805.73,-1366.38 166.9,-137.99 344.68,-176.88 195.36,-379.54 -183.2,-1.2 -406.53,153.37 -560.99,263.08 -886.23,629.61 -1768.4,1262.23 -2652,1896.09 -1460.63,1087.92 -2781.73,2073.1 -4169.17,3274.09 -78.94,84.69 -103.29,75.64 -91.14,239.79 313.87,80.61 364.62,-26.75 791.91,-386.97l1597.76 -1258.51c182.94,-161.18 368.86,-349.57 650.6,-300.13 128.86,187.86 1704.55,6293.58 2145.17,7446.25z"/>
  <path class="fil1" d="M15699.02 7866.97c0,95.83 -3.36,176.52 -11.77,245.45 -8.4,67.25 -20.17,121.04 -36.98,161.4 -16.81,42.03 -36.98,72.28 -62.21,90.78 -23.54,20.18 -52.11,30.26 -80.69,30.26l-1593.75 0 0 5139.33c0,31.94 -10.09,62.21 -31.94,89.1 -21.86,25.21 -57.16,47.07 -105.92,63.89 -48.75,15.13 -116,28.57 -200.06,38.66 -84.05,10.09 -188.29,15.14 -312.69,15.14 -124.4,0 -228.64,-5.05 -312.69,-15.14 -84.06,-10.09 -151.31,-23.54 -200.06,-38.66 -48.76,-16.82 -84.06,-38.67 -105.92,-63.89 -21.86,-26.89 -31.94,-57.16 -31.94,-89.1l0 -5139.33 -1593.75 0c-31.94,0 -60.53,-10.09 -84.06,-30.26 -21.86,-18.5 -42.03,-48.75 -58.84,-90.78 -15.13,-40.35 -28.58,-94.15 -36.98,-161.4 -8.41,-68.93 -11.78,-149.62 -11.78,-245.45 0,-97.51 3.37,-181.56 11.78,-250.5 8.4,-68.93 21.86,-124.4 36.98,-164.76 16.81,-42.02 36.98,-70.61 58.84,-89.1 23.54,-18.49 52.12,-26.89 84.06,-26.89l4488.72 0c28.58,0 55.48,8.41 80.69,26.89 25.22,18.5 45.4,47.08 62.21,89.1 16.82,40.35 28.58,95.83 36.98,164.76 8.41,68.94 11.77,152.99 11.77,250.5zm2994.16 1689.58c0,117.69 -3.36,215.18 -10.09,290.84 -6.72,75.65 -16.81,134.49 -28.57,176.52 -13.45,42.03 -31.94,72.29 -52.12,89.1 -21.86,16.82 -48.75,23.54 -82.37,23.54 -25.22,0 -55.48,-5.04 -89.1,-16.81 -31.94,-11.77 -68.94,-23.54 -110.97,-36.98 -40.34,-13.46 -85.73,-25.22 -134.49,-36.99 -50.43,-11.77 -104.23,-16.81 -163.07,-16.81 -68.94,0 -137.86,13.45 -206.79,42.03 -68.93,28.57 -141.22,70.61 -215.19,131.12 -73.96,58.85 -151.3,137.86 -232,235.37 -80.69,99.19 -166.44,220.23 -258.9,364.81l0 2741.99c0,31.94 -10.09,60.52 -30.26,85.74 -18.5,25.21 -52.12,45.39 -100.87,62.2 -47.07,15.14 -110.96,28.58 -188.29,36.99 -79.01,8.4 -179.88,11.77 -300.93,11.77 -121.04,0 -221.91,-3.37 -300.93,-11.77 -77.33,-8.41 -141.22,-21.86 -188.3,-36.99 -48.75,-16.81 -82.37,-36.98 -100.87,-62.2 -20.17,-25.22 -30.25,-53.8 -30.25,-85.74l0 -4397.94c0,-31.94 8.4,-60.53 25.21,-85.74 15.13,-25.21 45.39,-45.39 87.42,-62.21 43.71,-15.13 97.51,-28.57 164.76,-36.98 67.25,-8.41 152.99,-11.77 253.86,-11.77 105.91,0 191.65,3.36 260.58,11.77 68.94,8.41 122.72,21.86 161.4,36.98 36.98,16.82 63.89,36.99 80.69,62.21 16.82,25.21 25.21,53.8 25.21,85.74l0 548.06c114.33,-164.75 223.6,-299.25 324.47,-405.16 102.55,-105.92 200.06,-191.66 290.84,-253.86 92.47,-62.21 184.93,-105.92 277.39,-129.45 90.78,-25.21 183.25,-36.98 275.71,-36.98 42.03,0 89.1,1.68 137.86,6.72 48.75,5.05 100.87,13.46 152.99,25.22 52.11,11.77 99.19,25.21 137.85,38.66 40.35,15.14 68.93,30.26 87.42,47.07 16.81,16.82 30.26,35.31 38.66,53.8 8.41,20.18 15.14,47.08 21.86,82.38 6.73,33.62 11.77,85.73 15.14,154.67 3.36,68.93 5.04,161.39 5.04,279.07zm4281.93 4002.86c0,45.39 -16.81,80.7 -48.75,107.6 -33.62,26.89 -85.74,45.39 -156.35,57.16 -70.62,11.77 -174.84,16.82 -314.38,16.82 -147.94,0 -255.54,-5.05 -322.78,-16.82 -67.25,-11.77 -116,-30.26 -142.9,-57.16 -28.57,-26.89 -42.03,-62.21 -42.03,-107.6l0 -349.68c-181.56,193.33 -386.67,342.96 -618.67,450.55 -230.31,107.6 -487.54,161.4 -769.97,161.4 -232,0 -447.2,-30.26 -642.21,-90.78 -195.02,-60.53 -363.13,-151.31 -506.03,-270.67 -142.9,-121.04 -253.86,-268.98 -332.87,-445.51 -79.02,-178.2 -117.69,-384.99 -117.69,-620.35 0,-257.22 50.44,-479.14 149.62,-667.43 100.88,-189.97 250.5,-344.64 448.88,-469.04 198.38,-122.72 443.83,-213.51 739.72,-272.35 294.21,-58.84 637.17,-89.1 1027.19,-89.1l428.7 0 0 -265.62c0,-137.85 -13.45,-258.9 -42.03,-363.13 -26.89,-102.55 -73.97,-189.97 -137.85,-258.9 -63.89,-68.93 -147.95,-119.36 -255.55,-152.99 -105.91,-31.94 -238.72,-48.75 -395.07,-48.75 -206.79,0 -391.72,23.54 -553.1,68.93 -163.08,45.39 -305.98,97.51 -430.38,152.99 -124.41,55.48 -228.64,107.59 -312.7,152.99 -84.05,45.39 -151.3,68.93 -203.42,68.93 -36.98,0 -68.93,-11.77 -95.83,-33.62 -28.57,-23.54 -52.11,-57.16 -68.93,-99.19 -18.5,-42.03 -31.94,-95.83 -42.03,-158.03 -10.09,-62.21 -15.13,-131.13 -15.13,-205.11 0,-102.55 8.41,-183.25 25.21,-242.09 15.14,-58.84 47.07,-110.96 92.47,-159.71 47.07,-47.08 126.08,-99.19 242.08,-156.36 114.33,-57.16 248.82,-110.96 403.49,-159.71 154.67,-50.44 322.78,-90.78 504.35,-121.04 183.24,-31.94 371.53,-47.07 564.87,-47.07 344.64,0 638.85,33.62 884.29,100.87 243.77,67.25 445.51,171.47 601.85,311.01 158.04,139.54 274.03,319.42 346.33,539.66 72.28,218.55 107.59,480.81 107.59,781.75l0 2957.17zm-1220.52 -1886.26l-472.41 0c-200.06,0 -369.85,15.13 -511.07,43.71 -141.22,30.25 -255.54,73.96 -344.64,134.49 -89.1,58.84 -152.99,129.44 -193.34,213.51 -42.03,84.06 -62.2,179.88 -62.2,287.48 0,184.93 58.84,329.51 174.83,433.74 116.01,105.92 277.39,158.04 484.18,158.04 173.16,0 332.87,-43.71 479.14,-132.81 146.26,-89.1 294.2,-218.55 445.51,-390.04l0 -748.11zm6654.07 1871.14c0,31.94 -10.08,60.52 -30.25,85.74 -18.5,25.21 -52.12,45.39 -97.51,62.2 -47.07,15.14 -110.96,28.58 -191.65,36.99 -80.7,8.4 -179.89,11.77 -297.57,11.77 -122.73,0 -223.6,-3.37 -304.3,-11.77 -80.69,-8.41 -144.58,-21.86 -191.65,-36.99 -45.39,-16.81 -79.01,-36.98 -97.51,-62.2 -20.18,-25.22 -30.26,-53.8 -30.26,-85.74l0 -2506.62c0,-213.51 -15.13,-381.62 -47.07,-502.66 -30.26,-122.73 -75.65,-226.96 -134.49,-312.7 -58.85,-87.42 -136.18,-154.67 -228.64,-203.42 -94.15,-47.07 -201.74,-70.62 -326.15,-70.62 -158.03,0 -316.05,57.17 -477.45,173.16 -159.71,114.32 -327.82,282.44 -500.99,500.99l0 2921.88c0,31.94 -10.09,60.52 -30.26,85.74 -18.5,25.21 -52.12,45.39 -100.87,62.2 -47.07,15.14 -110.96,28.58 -188.29,36.99 -79.01,8.4 -179.88,11.77 -300.93,11.77 -121.04,0 -221.91,-3.37 -300.93,-11.77 -77.33,-8.41 -141.22,-21.86 -188.3,-36.99 -48.75,-16.81 -82.37,-36.98 -100.87,-62.2 -20.17,-25.22 -30.25,-53.8 -30.25,-85.74l0 -4397.94c0,-31.94 8.4,-60.53 25.21,-85.74 15.13,-25.21 45.39,-45.39 87.42,-62.21 43.71,-15.13 97.51,-28.57 164.76,-36.98 67.25,-8.41 152.99,-11.77 253.86,-11.77 105.91,0 191.65,3.36 260.58,11.77 68.94,8.41 122.72,21.86 161.4,36.98 36.98,16.82 63.89,36.99 80.69,62.21 16.82,25.21 25.21,53.8 25.21,85.74l0 507.71c242.09,-262.27 489.23,-457.28 741.4,-588.41 250.49,-131.13 512.75,-196.7 785.11,-196.7 299.25,0 551.42,48.75 756.52,147.94 205.11,97.51 369.86,232 497.63,401.81 126.09,168.11 216.87,366.49 272.35,593.45 55.48,226.96 84.05,499.31 84.05,817.05l0 2715.09zm4313.89 -1244.07c0,248.82 -47.07,469.05 -141.22,660.7 -92.46,189.97 -225.27,348.01 -396.76,477.45 -171.47,127.77 -373.22,223.6 -606.9,287.48 -233.68,63.89 -485.86,95.83 -758.2,95.83 -164.76,0 -322.79,-11.77 -472.41,-36.98 -149.63,-25.22 -282.44,-57.16 -401.8,-95.83 -117.69,-36.98 -216.87,-75.65 -295.89,-116 -79.01,-40.35 -136.18,-77.33 -171.48,-112.65 -36.98,-35.3 -65.57,-89.1 -84.05,-163.07 -20.18,-72.29 -30.26,-181.57 -30.26,-326.15 0,-94.14 3.36,-169.79 10.09,-226.95 6.72,-57.17 16.81,-104.24 28.57,-137.86 13.46,-33.62 30.26,-57.16 50.44,-68.93 18.5,-11.77 43.71,-16.82 73.97,-16.82 35.3,0 89.1,20.18 159.71,62.21 70.61,42.03 158.03,87.42 263.94,136.17 104.23,50.44 226.96,97.51 366.49,139.54 139.54,43.71 299.25,65.57 475.77,65.57 110.96,0 211.83,-11.77 297.57,-35.3 87.42,-21.86 163.08,-55.48 226.96,-99.19 63.88,-42.03 112.64,-95.83 146.26,-163.08 31.94,-65.57 48.75,-141.22 48.75,-226.96 0,-99.19 -30.25,-183.24 -90.78,-253.86 -62.21,-70.61 -142.9,-132.81 -242.09,-184.92 -100.87,-52.12 -215.18,-100.88 -341.28,-147.95 -126.08,-45.39 -257.22,-95.82 -390.03,-152.99 -132.81,-55.48 -263.94,-119.35 -390.03,-191.65 -126.09,-72.29 -240.41,-159.71 -341.28,-265.62 -99.19,-104.23 -179.88,-232 -242.09,-378.26 -60.53,-147.95 -90.78,-326.15 -90.78,-532.94 0,-210.15 42.02,-401.8 124.4,-578.32 82.37,-174.84 200.06,-326.14 354.73,-450.56 156.35,-124.4 344.64,-221.91 566.55,-290.84 223.6,-68.93 472.41,-102.55 749.8,-102.55 139.54,0 272.35,10.09 403.49,28.57 129.44,20.18 248.81,45.39 353.05,73.97 105.91,30.26 195.01,60.53 267.3,95.83 72.28,33.62 124.4,63.88 156.35,87.42 31.94,25.21 53.8,48.75 67.25,73.96 11.77,25.22 21.86,53.8 28.58,89.1 6.72,33.62 13.45,77.33 18.49,127.77 5.05,50.44 6.73,114.32 6.73,189.97 0,89.1 -1.68,161.4 -6.73,216.87 -5.04,55.48 -13.45,100.87 -25.21,132.81 -11.77,33.62 -26.89,55.48 -47.07,67.25 -20.18,11.77 -43.71,16.81 -68.93,16.81 -30.26,0 -77.33,-16.81 -139.54,-52.11 -62.21,-33.62 -141.22,-70.62 -235.36,-109.28 -94.15,-38.67 -203.43,-75.65 -326.15,-109.28 -124.4,-35.3 -265.62,-52.12 -423.65,-52.12 -112.64,0 -210.15,11.77 -292.53,33.62 -82.37,23.54 -149.62,57.16 -203.42,99.19 -52.12,42.03 -92.46,92.47 -117.69,149.63 -26.89,57.16 -40.34,119.36 -40.34,183.24 0,102.56 31.93,188.29 94.14,257.23 62.21,68.93 144.58,129.44 247.13,181.56 100.88,52.12 218.55,102.55 348.01,147.94 129.45,45.4 262.27,95.83 395.08,149.63 132.81,53.8 265.62,117.69 395.08,189.97 129.44,72.29 247.13,161.4 348,265.62 102.55,105.92 184.93,230.32 247.13,376.58 62.21,146.27 94.15,319.42 94.15,519.48zm3486.75 -4826.64c0,95.83 -3.36,171.48 -10.09,230.32 -6.73,57.16 -16.82,102.56 -28.58,132.81 -13.45,31.94 -28.57,52.12 -45.39,63.89 -15.13,11.77 -33.62,16.82 -53.8,16.82 -23.54,0 -48.75,-5.05 -75.65,-16.82 -28.57,-11.77 -62.2,-23.54 -104.23,-36.98 -40.35,-13.45 -89.1,-25.22 -144.58,-36.99 -55.48,-11.77 -121.04,-16.81 -196.7,-16.81 -87.42,0 -164.76,13.45 -228.64,42.03 -63.88,26.89 -117.68,72.28 -159.71,132.81 -42.03,60.52 -73.97,139.53 -92.46,235.36 -20.18,97.51 -30.26,215.18 -30.26,356.41l0 403.49 805.28 0c30.26,0 57.16,8.41 82.37,25.21 25.22,16.82 45.39,43.71 62.21,80.69 15.13,38.67 28.57,90.79 36.98,156.36 8.41,65.56 11.77,146.26 11.77,242.08 0,181.57 -16.81,311.02 -48.75,388.36 -33.62,77.33 -80.69,116 -144.58,116l-805.28 0 0 3555.67c0,31.94 -10.09,60.52 -30.26,85.74 -18.5,25.21 -52.12,45.39 -97.51,62.2 -47.07,15.14 -110.96,28.58 -193.33,36.99 -82.38,8.4 -183.25,11.77 -300.93,11.77 -119.36,0 -218.55,-3.37 -299.25,-11.77 -80.7,-8.41 -146.27,-21.86 -193.34,-36.99 -47.07,-16.81 -80.69,-36.98 -99.19,-62.2 -18.5,-25.22 -26.89,-53.8 -26.89,-85.74l0 -3555.67 -549.74 0c-62.21,0 -109.28,-38.66 -139.54,-116 -31.94,-77.33 -47.07,-206.79 -47.07,-388.36 0,-95.82 3.36,-176.52 11.77,-242.08 8.41,-65.57 20.18,-117.69 35.3,-156.36 15.14,-36.98 33.62,-63.88 58.85,-80.69 23.54,-16.81 52.11,-25.21 85.73,-25.21l544.71 0 0 -369.86c0,-299.25 30.25,-561.51 89.1,-786.79 58.84,-223.59 151.3,-411.88 277.39,-561.51 127.76,-149.62 289.16,-262.26 484.18,-337.91 195.01,-75.65 427.01,-112.65 692.63,-112.65 127.77,0 248.82,10.09 364.81,31.94 114.33,21.86 205.11,45.39 270.67,68.94 65.57,25.21 110.96,48.75 132.81,68.93 23.54,21.86 42.03,53.8 57.16,94.14 15.13,42.03 25.21,94.15 31.94,158.04 6.73,65.57 10.09,144.58 10.09,240.4zm4426.52 3745.65c0,151.31 -33.62,262.27 -100.87,334.56 -67.26,72.28 -159.72,109.28 -279.08,109.28l-2676.42 0c0,186.61 21.86,354.73 67.25,507.71 43.71,151.3 114.32,280.75 210.15,386.67 97.51,105.91 221.91,186.61 374.9,242.09 152.99,55.48 334.55,84.05 548.07,84.05 216.86,0 406.83,-15.13 571.59,-47.07 163.08,-31.94 305.98,-65.57 425.34,-104.24 119.36,-38.66 218.55,-72.28 297.57,-104.23 79.01,-31.94 142.9,-47.07 191.65,-47.07 30.26,0 55.48,5.04 73.97,16.81 20.18,11.77 36.98,31.94 50.43,62.21 11.77,28.57 21.86,70.61 26.9,124.4 5.04,53.8 6.72,122.72 6.72,203.43 0,72.28 -1.68,134.49 -5.04,184.92 -3.36,50.44 -8.41,94.15 -15.13,129.45 -6.73,36.98 -15.14,67.25 -28.58,90.78 -13.45,25.22 -30.26,48.76 -52.12,72.29 -21.86,21.86 -79.01,53.8 -174.83,94.14 -95.83,40.35 -216.87,79.01 -364.82,117.69 -147.94,38.66 -316.05,72.28 -506.02,100.87 -189.98,28.58 -393.4,43.71 -610.27,43.71 -391.71,0 -732.99,-48.75 -1027.19,-147.94 -292.52,-97.51 -537.97,-247.14 -736.35,-447.2 -196.7,-200.06 -342.96,-453.91 -440.47,-758.2 -95.83,-305.98 -144.58,-664.07 -144.58,-1074.27 0,-390.03 50.43,-741.39 152.99,-1055.77 100.87,-312.7 248.81,-578.33 443.83,-796.87 193.33,-218.55 428.7,-384.99 706.09,-499.32 279.07,-116 591.77,-173.15 939.77,-173.15 368.17,0 682.56,53.8 943.13,163.08 262.27,107.59 475.77,258.9 643.9,450.55 166.44,191.66 290.84,420.29 369.85,682.56 79.01,262.27 117.69,548.07 117.69,857.4l0 196.69zm-1200.36 -353.04c10.09,-348.01 -60.52,-622.04 -210.15,-820.42 -149.63,-200.06 -379.94,-299.25 -692.64,-299.25 -158.03,0 -295.89,30.26 -411.88,89.1 -117.69,58.85 -215.18,137.86 -292.52,238.73 -77.33,100.87 -136.18,218.55 -176.52,354.73 -42.03,137.85 -65.57,282.44 -72.29,437.11l1856.01 0zm5048.55 -1309.64c0,117.69 -3.36,215.18 -10.09,290.84 -6.72,75.65 -16.81,134.49 -28.57,176.52 -13.45,42.03 -31.94,72.29 -52.12,89.1 -21.86,16.82 -48.75,23.54 -82.37,23.54 -25.22,0 -55.48,-5.04 -89.1,-16.81 -31.94,-11.77 -68.94,-23.54 -110.97,-36.98 -40.34,-13.46 -85.73,-25.22 -134.49,-36.99 -50.43,-11.77 -104.23,-16.81 -163.07,-16.81 -68.94,0 -137.86,13.45 -206.79,42.03 -68.93,28.57 -141.22,70.61 -215.19,131.12 -73.96,58.85 -151.3,137.86 -232,235.37 -80.69,99.19 -166.44,220.23 -258.9,364.81l0 2741.99c0,31.94 -10.09,60.52 -30.26,85.74 -18.5,25.21 -52.12,45.39 -100.87,62.2 -47.07,15.14 -110.96,28.58 -188.29,36.99 -79.01,8.4 -179.88,11.77 -300.93,11.77 -121.04,0 -221.91,-3.37 -300.93,-11.77 -77.33,-8.41 -141.22,-21.86 -188.3,-36.99 -48.75,-16.81 -82.37,-36.98 -100.87,-62.2 -20.17,-25.22 -30.25,-53.8 -30.25,-85.74l0 -4397.94c0,-31.94 8.4,-60.53 25.21,-85.74 15.13,-25.21 45.39,-45.39 87.42,-62.21 43.71,-15.13 97.51,-28.57 164.76,-36.98 67.25,-8.41 152.99,-11.77 253.86,-11.77 105.91,0 191.65,3.36 260.58,11.77 68.94,8.41 122.72,21.86 161.4,36.98 36.98,16.82 63.89,36.99 80.69,62.21 16.82,25.21 25.21,53.8 25.21,85.74l0 548.06c114.33,-164.75 223.6,-299.25 324.47,-405.16 102.55,-105.92 200.06,-191.66 290.84,-253.86 92.47,-62.21 184.93,-105.92 277.39,-129.45 90.78,-25.21 183.25,-36.98 275.71,-36.98 42.03,0 89.1,1.68 137.86,6.72 48.75,5.05 100.87,13.46 152.99,25.22 52.11,11.77 99.19,25.21 137.85,38.66 40.35,15.14 68.93,30.26 87.42,47.07 16.81,16.82 30.26,35.31 38.66,53.8 8.41,20.18 15.14,47.08 21.86,82.38 6.73,33.62 11.77,85.73 15.14,154.67 3.36,68.93 5.04,161.39 5.04,279.07zm3735.56 2743.67c0,248.82 -47.07,469.05 -141.22,660.7 -92.46,189.97 -225.27,348.01 -396.76,477.45 -171.47,127.77 -373.22,223.6 -606.9,287.48 -233.68,63.89 -485.86,95.83 -758.2,95.83 -164.76,0 -322.79,-11.77 -472.41,-36.98 -149.63,-25.22 -282.44,-57.16 -401.8,-95.83 -117.69,-36.98 -216.87,-75.65 -295.89,-116 -79.01,-40.35 -136.18,-77.33 -171.48,-112.65 -36.98,-35.3 -65.57,-89.1 -84.05,-163.07 -20.18,-72.29 -30.26,-181.57 -30.26,-326.15 0,-94.14 3.36,-169.79 10.09,-226.95 6.72,-57.17 16.81,-104.24 28.57,-137.86 13.46,-33.62 30.26,-57.16 50.44,-68.93 18.5,-11.77 43.71,-16.82 73.97,-16.82 35.3,0 89.1,20.18 159.71,62.21 70.61,42.03 158.03,87.42 263.94,136.17 104.23,50.44 226.96,97.51 366.49,139.54 139.54,43.71 299.25,65.57 475.77,65.57 110.96,0 211.83,-11.77 297.57,-35.3 87.42,-21.86 163.08,-55.48 226.96,-99.19 63.88,-42.03 112.64,-95.83 146.26,-163.08 31.94,-65.57 48.75,-141.22 48.75,-226.96 0,-99.19 -30.25,-183.24 -90.78,-253.86 -62.21,-70.61 -142.9,-132.81 -242.09,-184.92 -100.87,-52.12 -215.18,-100.88 -341.28,-147.95 -126.08,-45.39 -257.22,-95.82 -390.03,-152.99 -132.81,-55.48 -263.94,-119.35 -390.03,-191.65 -126.09,-72.29 -240.41,-159.71 -341.28,-265.62 -99.19,-104.23 -179.88,-232 -242.09,-378.26 -60.53,-147.95 -90.78,-326.15 -90.78,-532.94 0,-210.15 42.02,-401.8 124.4,-578.32 82.37,-174.84 200.06,-326.14 354.73,-450.56 156.35,-124.4 344.64,-221.91 566.55,-290.84 223.6,-68.93 472.41,-102.55 749.8,-102.55 139.54,0 272.35,10.09 403.49,28.57 129.44,20.18 248.81,45.39 353.05,73.97 105.91,30.26 195.01,60.53 267.3,95.83 72.28,33.62 124.4,63.88 156.35,87.42 31.94,25.21 53.8,48.75 67.25,73.96 11.77,25.22 21.86,53.8 28.58,89.1 6.72,33.62 13.45,77.33 18.49,127.77 5.05,50.44 6.73,114.32 6.73,189.97 0,89.1 -1.68,161.4 -6.73,216.87 -5.04,55.48 -13.45,100.87 -25.21,132.81 -11.77,33.62 -26.89,55.48 -47.07,67.25 -20.18,11.77 -43.71,16.81 -68.93,16.81 -30.26,0 -77.33,-16.81 -139.54,-52.11 -62.21,-33.62 -141.22,-70.62 -235.36,-109.28 -94.15,-38.67 -203.43,-75.65 -326.15,-109.28 -124.4,-35.3 -265.62,-52.12 -423.65,-52.12 -112.64,0 -210.15,11.77 -292.53,33.62 -82.37,23.54 -149.62,57.16 -203.42,99.19 -52.12,42.03 -92.46,92.47 -117.69,149.63 -26.89,57.16 -40.34,119.36 -40.34,183.24 0,102.56 31.93,188.29 94.14,257.23 62.21,68.93 144.58,129.44 247.13,181.56 100.88,52.12 218.55,102.55 348.01,147.94 129.45,45.4 262.27,95.83 395.08,149.63 132.81,53.8 265.62,117.69 395.08,189.97 129.44,72.29 247.13,161.4 348,265.62 102.55,105.92 184.93,230.32 247.13,376.58 62.21,146.27 94.15,319.42 94.15,519.48zm2380.53 697.68c0,304.3 -52.12,511.08 -159.71,615.31 -105.92,105.92 -297.57,158.03 -573.28,158.03 -275.71,0 -467.37,-52.11 -571.6,-154.67 -105.92,-104.23 -158.03,-300.93 -158.03,-590.09 0,-307.66 53.8,-516.12 159.71,-620.35 107.6,-105.92 300.93,-158.03 580.01,-158.03 272.34,0 460.63,52.11 566.55,154.67 104.23,104.23 156.35,302.61 156.35,595.13zm5660.5 -1716.47c0,390.03 -42.03,743.07 -126.09,1055.78 -82.37,312.69 -205.1,580 -366.49,800.23 -159.72,220.23 -359.77,388.35 -598.49,507.71 -240.41,117.69 -514.44,176.52 -822.1,176.52 -127.76,0 -245.45,-11.77 -351.36,-36.98 -107.6,-25.22 -210.15,-62.21 -311.02,-112.64 -99.19,-52.12 -198.38,-114.33 -297.57,-189.98 -97.5,-75.65 -200.06,-164.76 -304.29,-265.62l0 2067.84c0,33.62 -10.09,62.21 -30.26,89.1 -18.5,25.22 -52.12,48.76 -100.87,65.57 -47.07,18.5 -110.96,31.94 -188.29,42.03 -79.01,10.09 -179.88,15.14 -300.93,15.14 -121.04,0 -221.91,-5.05 -300.93,-15.14 -77.33,-10.09 -141.22,-23.54 -188.3,-42.03 -48.75,-16.81 -82.37,-40.34 -100.87,-65.57 -20.17,-26.89 -30.25,-55.48 -30.25,-89.1l0 -6137.94c0,-31.94 8.4,-60.53 25.21,-85.74 15.13,-25.21 43.71,-45.39 85.74,-62.21 40.34,-15.13 94.14,-28.57 163.07,-36.98 67.25,-8.41 151.31,-11.77 252.18,-11.77 99.19,0 181.57,3.36 248.82,11.77 67.25,8.41 122.72,21.86 163.08,36.98 40.34,16.82 68.93,36.99 85.73,62.21 16.82,25.21 25.22,53.8 25.22,87.42l0 517.8c127.76,-131.13 252.17,-247.13 376.58,-346.32 122.72,-100.88 247.13,-183.25 374.9,-250.5 129.44,-67.25 260.58,-117.69 396.75,-151.31 136.18,-31.94 280.76,-48.75 435.43,-48.75 321.1,0 595.14,63.89 822.09,189.97 225.28,126.08 410.2,299.25 553.1,519.48 142.9,218.55 247.14,475.77 312.7,768.3 65.57,290.84 97.51,603.53 97.51,934.72zm-1291.14 85.74c0,-186.61 -13.46,-366.49 -42.03,-537.98 -26.9,-171.47 -75.65,-324.46 -142.9,-458.95 -67.25,-134.5 -154.67,-242.09 -263.94,-321.1 -110.96,-80.7 -247.13,-121.04 -410.2,-121.04 -82.38,0 -163.08,11.77 -243.77,36.98 -80.69,25.21 -161.4,63.89 -245.45,121.04 -84.06,55.48 -169.8,127.76 -257.23,215.18 -89.1,89.1 -183.24,198.38 -280.75,329.51l0 1447.49c173.16,218.55 339.6,386.67 495.95,506.03 158.03,119.36 321.1,178.2 490.9,178.2 161.4,0 297.57,-40.34 410.2,-122.72 112.65,-82.37 206.79,-189.97 277.39,-321.1 72.29,-132.81 126.09,-282.44 159.72,-450.56 35.3,-166.44 52.12,-334.55 52.12,-500.99zm4848.48 1745.05c0,144.58 -8.41,255.54 -26.89,332.87 -18.5,77.33 -42.03,131.13 -72.29,161.4 -28.57,31.93 -72.28,60.52 -129.45,84.05 -58.84,25.21 -126.08,47.07 -203.42,63.89 -75.65,18.5 -159.71,31.94 -250.5,42.03 -90.78,10.09 -181.56,15.13 -274.02,15.13 -245.46,0 -458.96,-31.94 -640.53,-94.14 -179.89,-62.21 -329.51,-158.04 -448.88,-287.48 -117.69,-129.45 -205.11,-292.53 -260.59,-490.91 -55.48,-196.7 -84.05,-430.38 -84.05,-699.36l0 -2251.09 -532.93 0c-62.21,0 -110.97,-38.66 -142.9,-116 -33.62,-77.33 -50.44,-206.79 -50.44,-388.36 0,-95.82 3.36,-176.52 11.77,-242.08 8.41,-65.57 21.86,-117.69 38.67,-156.36 15.13,-36.98 36.98,-63.88 62.2,-80.69 23.54,-16.81 53.8,-25.21 85.74,-25.21l527.89 0 0 -983.48c0,-31.94 8.41,-62.21 26.89,-89.1 18.5,-25.22 52.12,-47.08 99.19,-65.57 47.07,-18.5 112.64,-31.94 193.34,-40.35 80.69,-8.41 179.88,-11.77 299.25,-11.77 121.04,0 221.91,3.36 302.61,11.77 80.69,8.41 144.58,21.86 191.66,40.35 45.39,18.49 79.01,40.34 97.5,65.57 20.18,26.89 30.26,57.16 30.26,89.1l0 983.48 953.22 0c33.62,0 62.21,8.41 85.74,25.21 25.21,16.82 45.39,43.71 62.21,80.69 16.81,38.67 28.57,90.79 36.98,156.36 8.41,65.56 11.77,146.26 11.77,242.08 0,181.57 -16.81,311.02 -48.75,388.36 -33.62,77.33 -80.7,116 -142.9,116l-958.27 0 0 2064.48c0,240.41 36.98,420.29 112.64,539.66 75.65,119.36 210.15,179.88 403.49,179.88 65.57,0 124.4,-5.04 176.52,-16.81 52.11,-11.77 99.19,-25.22 139.53,-40.35 42.03,-13.45 75.65,-26.9 104.24,-38.67 26.89,-11.77 53.8,-16.81 75.65,-16.81 20.18,0 38.66,5.04 57.16,16.81 16.81,11.77 31.94,33.62 42.03,68.94 8.4,33.62 18.49,80.69 26.89,139.53 8.41,60.53 11.77,134.49 11.77,226.96z"/>
  <path class="fil1" d="M21824.76 15473.71c0,26.97 -0.95,49.68 -3.31,69.09 -2.37,18.93 -5.68,34.06 -10.41,45.42 -4.74,11.83 -10.41,20.35 -17.51,25.54 -6.63,5.68 -14.67,8.52 -22.72,8.52l-448.54 0 0 1446.39c0,8.99 -2.84,17.51 -8.99,25.07 -6.15,7.1 -16.09,13.25 -29.8,17.98 -13.73,4.26 -32.65,8.05 -56.31,10.89 -23.66,2.84 -52.99,4.26 -88,4.26 -35.01,0 -64.35,-1.42 -88,-4.26 -23.67,-2.84 -42.58,-6.63 -56.31,-10.89 -13.72,-4.73 -23.66,-10.88 -29.8,-17.98 -6.15,-7.57 -8.99,-16.09 -8.99,-25.07l0 -1446.39 -448.54 0c-9,0 -17.04,-2.84 -23.67,-8.52 -6.15,-5.2 -11.83,-13.72 -16.56,-25.54 -4.26,-11.36 -8.04,-26.49 -10.41,-45.42 -2.37,-19.41 -3.31,-42.11 -3.31,-69.09 0,-27.43 0.94,-51.1 3.31,-70.5 2.37,-19.4 6.15,-35.01 10.41,-46.37 4.73,-11.83 10.41,-19.87 16.56,-25.07 6.63,-5.2 14.67,-7.57 23.67,-7.57l1263.28 0c8.05,0 15.62,2.37 22.72,7.57 7.1,5.21 12.77,13.25 17.51,25.07 4.73,11.36 8.04,26.97 10.41,46.37 2.36,19.4 3.31,43.06 3.31,70.5zm842.66 475.51c0,33.11 -0.95,60.56 -2.84,81.85 -1.9,21.29 -4.74,37.85 -8.05,49.68 -3.79,11.83 -8.99,20.35 -14.67,25.07 -6.15,4.73 -13.72,6.63 -23.19,6.63 -7.1,0 -15.62,-1.42 -25.07,-4.74 -8.99,-3.31 -19.4,-6.62 -31.22,-10.41 -11.36,-3.78 -24.13,-7.1 -37.85,-10.41 -14.2,-3.31 -29.33,-4.73 -45.9,-4.73 -19.4,0 -38.79,3.78 -58.2,11.83 -19.4,8.04 -39.74,19.88 -60.56,36.9 -20.82,16.56 -42.58,38.8 -65.3,66.24 -22.71,27.92 -46.84,61.99 -72.86,102.68l0 771.69c0,8.99 -2.83,17.04 -8.51,24.12 -5.21,7.1 -14.67,12.78 -28.39,17.51 -13.25,4.26 -31.22,8.05 -52.99,10.42 -22.24,2.36 -50.63,3.31 -84.69,3.31 -34.06,0 -62.46,-0.95 -84.69,-3.31 -21.77,-2.37 -39.74,-6.16 -52.99,-10.42 -13.73,-4.73 -23.19,-10.41 -28.39,-17.51 -5.68,-7.09 -8.52,-15.14 -8.52,-24.12l0 -1237.73c0,-8.99 2.37,-17.04 7.1,-24.13 4.26,-7.1 12.78,-12.77 24.6,-17.51 12.31,-4.26 27.44,-8.04 46.37,-10.41 18.93,-2.36 43.05,-3.31 71.45,-3.31 29.8,0 53.94,0.95 73.33,3.31 19.4,2.37 34.54,6.15 45.42,10.41 10.41,4.74 17.98,10.41 22.72,17.51 4.73,7.1 7.09,15.15 7.09,24.13l0 154.24c32.18,-46.36 62.94,-84.21 91.32,-114.03 28.86,-29.8 56.31,-53.94 81.85,-71.45 26.02,-17.51 52.05,-29.8 78.06,-36.43 25.55,-7.09 51.58,-10.41 77.6,-10.41 11.83,0 25.07,0.48 38.79,1.9 13.72,1.42 28.39,3.78 43.06,7.1 14.67,3.31 27.91,7.09 38.79,10.88 11.36,4.26 19.4,8.52 24.6,13.25 4.73,4.73 8.52,9.94 10.88,15.14 2.37,5.68 4.26,13.25 6.16,23.19 1.89,9.47 3.31,24.13 4.26,43.53 0.94,19.4 1.42,45.42 1.42,78.54zm1205.08 1126.54c0,12.78 -4.73,22.71 -13.72,30.28 -9.47,7.57 -24.13,12.77 -44,16.09 -19.88,3.31 -49.21,4.73 -88.48,4.73 -41.63,0 -71.91,-1.42 -90.84,-4.73 -18.93,-3.32 -32.64,-8.52 -40.21,-16.09 -8.05,-7.58 -11.84,-17.51 -11.84,-30.28l0 -98.42c-51.1,54.42 -108.82,96.53 -174.11,126.8 -64.82,30.28 -137.21,45.42 -216.69,45.42 -65.3,0 -125.85,-8.51 -180.74,-25.54 -54.88,-17.04 -102.2,-42.58 -142.41,-76.17 -40.22,-34.07 -71.45,-75.7 -93.68,-125.38 -22.25,-50.15 -33.12,-108.35 -33.12,-174.59 0,-72.38 14.2,-134.84 42.11,-187.83 28.38,-53.47 70.5,-97 126.32,-132 55.84,-34.54 124.91,-60.1 208.19,-76.65 82.79,-16.56 179.32,-25.07 289.09,-25.07l120.64 0 0 -74.75c0,-38.8 -3.78,-72.86 -11.83,-102.2 -7.57,-28.86 -20.82,-53.47 -38.79,-72.86 -17.99,-19.4 -41.64,-33.59 -71.92,-43.06 -29.8,-8.99 -67.19,-13.72 -111.19,-13.72 -58.2,0 -110.24,6.63 -155.66,19.4 -45.9,12.78 -86.11,27.44 -121.12,43.06 -35.01,15.61 -64.35,30.28 -88,43.05 -23.67,12.78 -42.59,19.41 -57.26,19.41 -10.41,0 -19.4,-3.32 -26.96,-9.47 -8.05,-6.62 -14.67,-16.09 -19.4,-27.91 -5.21,-11.83 -9,-26.96 -11.83,-44.47 -2.84,-17.51 -4.26,-36.91 -4.26,-57.73 0,-28.86 2.36,-51.57 7.09,-68.14 4.26,-16.56 13.26,-31.22 26.02,-44.94 13.25,-13.25 35.49,-27.91 68.14,-44 32.17,-16.1 70.03,-31.23 113.56,-44.95 43.52,-14.2 90.84,-25.55 141.94,-34.07 51.57,-8.99 104.56,-13.25 158.98,-13.25 96.99,0 179.79,9.47 248.87,28.39 68.61,18.93 125.38,48.26 169.38,87.53 44.47,39.27 77.12,89.89 97.47,151.88 20.35,61.51 30.27,135.31 30.27,220l0 832.26zm-343.5 -530.86l-132.95 0c-56.3,0 -104.09,4.25 -143.83,12.3 -39.74,8.52 -71.91,20.82 -97,37.85 -25.07,16.56 -43.05,36.43 -54.41,60.09 -11.83,23.66 -17.51,50.63 -17.51,80.9 0,52.05 16.56,92.74 49.21,122.07 32.64,29.8 78.06,44.47 136.26,44.47 48.73,0 93.68,-12.3 134.84,-37.37 41.17,-25.07 82.8,-61.51 125.38,-109.77l0 -210.55zm1872.69 526.6c0,8.99 -2.84,17.04 -8.52,24.12 -5.21,7.1 -14.67,12.78 -27.44,17.51 -13.25,4.26 -31.22,8.05 -53.94,10.42 -22.71,2.36 -50.62,3.31 -83.74,3.31 -34.54,0 -62.93,-0.95 -85.64,-3.31 -22.71,-2.37 -40.69,-6.16 -53.94,-10.42 -12.77,-4.73 -22.24,-10.41 -27.43,-17.51 -5.68,-7.09 -8.52,-15.14 -8.52,-24.12l0 -705.45c0,-60.09 -4.26,-107.4 -13.25,-141.47 -8.52,-34.53 -21.3,-63.87 -37.85,-88 -16.57,-24.6 -38.32,-43.53 -64.35,-57.25 -26.49,-13.25 -56.78,-19.88 -91.79,-19.88 -44.48,0 -88.95,16.09 -134.37,48.74 -44.95,32.17 -92.26,79.48 -141,140.99l0 822.32c0,8.99 -2.83,17.04 -8.51,24.12 -5.21,7.1 -14.67,12.78 -28.39,17.51 -13.25,4.26 -31.22,8.05 -52.99,10.42 -22.24,2.36 -50.63,3.31 -84.69,3.31 -34.06,0 -62.46,-0.95 -84.69,-3.31 -21.77,-2.37 -39.74,-6.16 -52.99,-10.42 -13.73,-4.73 -23.19,-10.41 -28.39,-17.51 -5.68,-7.09 -8.52,-15.14 -8.52,-24.12l0 -1237.73c0,-8.99 2.37,-17.04 7.1,-24.13 4.26,-7.1 12.78,-12.77 24.6,-17.51 12.31,-4.26 27.44,-8.04 46.37,-10.41 18.93,-2.36 43.05,-3.31 71.45,-3.31 29.8,0 53.94,0.95 73.33,3.31 19.4,2.37 34.54,6.15 45.42,10.41 10.41,4.74 17.98,10.41 22.72,17.51 4.73,7.1 7.09,15.15 7.09,24.13l0 142.89c68.14,-73.81 137.69,-128.69 208.66,-165.61 70.51,-36.9 144.31,-55.36 220.96,-55.36 84.21,0 155.19,13.73 212.91,41.64 57.73,27.44 104.09,65.3 140.05,113.08 35.48,47.32 61.04,103.15 76.65,167.03 15.61,63.87 23.66,140.52 23.66,229.94l0 764.12zm1214.08 -350.13c0,70.03 -13.25,132.01 -39.74,185.95 -26.02,53.46 -63.41,97.94 -111.67,134.37 -48.26,35.95 -105.04,62.93 -170.8,80.9 -65.77,17.98 -136.73,26.96 -213.39,26.96 -46.36,0 -90.84,-3.31 -132.95,-10.41 -42.1,-7.1 -79.48,-16.09 -113.08,-26.96 -33.12,-10.41 -61.04,-21.3 -83.27,-32.65 -22.24,-11.35 -38.32,-21.76 -48.26,-31.69 -10.41,-9.94 -18.46,-25.07 -23.66,-45.9 -5.68,-20.35 -8.52,-51.1 -8.52,-91.78 0,-26.5 0.95,-47.79 2.84,-63.88 1.89,-16.09 4.73,-29.33 8.04,-38.8 3.79,-9.46 8.52,-16.09 14.2,-19.4 5.21,-3.31 12.31,-4.73 20.82,-4.73 9.94,0 25.08,5.68 44.95,17.51 19.88,11.83 44.48,24.6 74.28,38.32 29.33,14.2 63.88,27.44 103.15,39.27 39.26,12.3 84.21,18.45 133.89,18.45 31.23,0 59.62,-3.31 83.75,-9.93 24.59,-6.16 45.89,-15.62 63.87,-27.91 17.99,-11.84 31.7,-26.97 41.16,-45.9 9,-18.46 13.73,-39.74 13.73,-63.88 0,-27.91 -8.52,-51.57 -25.55,-71.44 -17.51,-19.88 -40.21,-37.38 -68.13,-52.05 -28.39,-14.67 -60.57,-28.39 -96.05,-41.64 -35.48,-12.77 -72.39,-26.96 -109.77,-43.05 -37.38,-15.62 -74.28,-33.59 -109.77,-53.94 -35.49,-20.35 -67.67,-44.95 -96.05,-74.75 -27.91,-29.33 -50.63,-65.3 -68.14,-106.46 -17.03,-41.64 -25.54,-91.79 -25.54,-149.99 0,-59.14 11.83,-113.08 35.01,-162.76 23.19,-49.21 56.3,-91.79 99.83,-126.8 44,-35.01 97,-62.46 159.45,-81.85 62.93,-19.4 132.95,-28.86 211.03,-28.86 39.27,0 76.64,2.84 113.55,8.05 36.43,5.68 70.03,12.78 99.36,20.82 29.81,8.52 54.89,17.04 75.23,26.97 20.35,9.46 35.01,17.98 44,24.59 8.99,7.1 15.14,13.73 18.93,20.83 3.31,7.1 6.15,15.14 8.04,25.07 1.9,9.46 3.79,21.77 5.21,35.95 1.42,14.2 1.89,32.17 1.89,53.47 0,25.07 -0.47,45.42 -1.89,61.04 -1.42,15.61 -3.79,28.38 -7.1,37.37 -3.31,9.47 -7.57,15.62 -13.25,18.93 -5.68,3.32 -12.3,4.74 -19.4,4.74 -8.52,0 -21.77,-4.74 -39.27,-14.67 -17.51,-9.47 -39.74,-19.88 -66.24,-30.76 -26.5,-10.88 -57.26,-21.29 -91.79,-30.75 -35.01,-9.93 -74.75,-14.67 -119.24,-14.67 -31.7,0 -59.14,3.32 -82.32,9.47 -23.19,6.62 -42.11,16.09 -57.25,27.91 -14.67,11.83 -26.02,26.02 -33.12,42.11 -7.57,16.09 -11.36,33.59 -11.36,51.57 0,28.86 8.99,52.99 26.49,72.39 17.51,19.4 40.69,36.43 69.56,51.1 28.38,14.67 61.51,28.85 97.94,41.63 36.43,12.78 73.81,26.97 111.19,42.11 37.38,15.14 74.75,33.12 111.19,53.47 36.43,20.34 69.56,45.42 97.94,74.75 28.86,29.8 52.05,64.82 69.56,105.98 17.51,41.16 26.49,89.9 26.49,146.2zm981.29 -1358.38c0,26.96 -0.95,48.26 -2.84,64.82 -1.9,16.09 -4.74,28.86 -8.05,37.38 -3.79,8.99 -8.04,14.67 -12.78,17.98 -4.26,3.31 -9.46,4.73 -15.14,4.73 -6.63,0 -13.72,-1.42 -21.3,-4.73 -8.04,-3.31 -17.51,-6.63 -29.33,-10.41 -11.35,-3.79 -25.07,-7.1 -40.69,-10.41 -15.61,-3.32 -34.06,-4.74 -55.35,-4.74 -24.6,0 -46.37,3.79 -64.35,11.83 -17.99,7.58 -33.12,20.35 -44.95,37.38 -11.83,17.04 -20.82,39.27 -26.02,66.24 -5.68,27.44 -8.52,60.57 -8.52,100.31l0 113.56 226.63 0c8.52,0 16.09,2.36 23.19,7.1 7.1,4.73 12.78,12.3 17.51,22.71 4.26,10.89 8.05,25.55 10.41,44 2.37,18.46 3.32,41.16 3.32,68.14 0,51.1 -4.74,87.53 -13.73,109.3 -9.46,21.77 -22.71,32.64 -40.69,32.64l-226.63 0 0 1000.69c0,8.99 -2.84,17.04 -8.52,24.12 -5.2,7.1 -14.67,12.78 -27.43,17.51 -13.26,4.26 -31.23,8.05 -54.42,10.42 -23.19,2.36 -51.57,3.31 -84.69,3.31 -33.59,0 -61.51,-0.95 -84.21,-3.31 -22.72,-2.37 -41.16,-6.16 -54.42,-10.42 -13.25,-4.73 -22.71,-10.41 -27.91,-17.51 -5.2,-7.09 -7.57,-15.14 -7.57,-24.12l0 -1000.69 -154.72 0c-17.51,0 -30.75,-10.88 -39.27,-32.64 -8.99,-21.77 -13.25,-58.2 -13.25,-109.3 0,-26.97 0.95,-49.68 3.32,-68.14 2.36,-18.45 5.67,-33.11 9.93,-44 4.26,-10.41 9.47,-17.98 16.57,-22.71 6.62,-4.74 14.67,-7.1 24.12,-7.1l153.3 0 0 -104.1c0,-84.21 8.52,-158.03 25.07,-221.42 16.57,-62.93 42.58,-115.92 78.07,-158.03 35.95,-42.11 81.37,-73.81 136.26,-95.1 54.89,-21.3 120.17,-31.7 194.93,-31.7 35.96,0 70.03,2.84 102.68,8.99 32.17,6.15 57.72,12.78 76.17,19.4 18.45,7.1 31.22,13.73 37.37,19.41 6.63,6.15 11.84,15.14 16.09,26.49 4.26,11.83 7.1,26.49 9,44.47 1.89,18.46 2.84,40.69 2.84,67.67zm1245.78 1054.15c0,42.58 -9.47,73.81 -28.39,94.16 -18.93,20.34 -44.95,30.75 -78.54,30.75l-753.23 0c0,52.52 6.15,99.83 18.93,142.88 12.3,42.59 32.17,79.01 59.14,108.83 27.44,29.8 62.46,52.52 105.51,68.13 43.06,15.62 94.16,23.67 154.25,23.67 61.04,0 114.5,-4.26 160.87,-13.25 45.9,-9 86.11,-18.46 119.7,-29.33 33.59,-10.89 61.51,-20.35 83.74,-29.34 22.25,-8.99 40.22,-13.25 53.94,-13.25 8.52,0 15.62,1.42 20.83,4.74 5.67,3.31 10.41,8.99 14.19,17.51 3.32,8.04 6.15,19.87 7.57,35.01 1.42,15.14 1.9,34.53 1.9,57.25 0,20.35 -0.48,37.85 -1.42,52.04 -0.95,14.2 -2.37,26.5 -4.26,36.43 -1.89,10.41 -4.26,18.93 -8.05,25.55 -3.78,7.1 -8.51,13.72 -14.67,20.35 -6.15,6.15 -22.24,15.14 -49.2,26.49 -26.97,11.36 -61.04,22.24 -102.68,33.12 -41.63,10.88 -88.95,20.34 -142.41,28.38 -53.47,8.04 -110.72,12.3 -171.75,12.3 -110.24,0 -206.29,-13.72 -289.09,-41.63 -82.32,-27.44 -151.4,-69.56 -207.23,-125.85 -55.36,-56.31 -96.52,-127.75 -123.96,-213.39 -26.97,-86.11 -40.69,-186.89 -40.69,-302.34 0,-109.77 14.2,-208.66 43.05,-297.14 28.39,-88 70.03,-162.76 124.91,-224.26 54.41,-61.51 120.64,-108.35 198.72,-140.52 78.54,-32.65 166.55,-48.74 264.48,-48.74 103.62,0 192.09,15.15 265.43,45.9 73.8,30.27 133.89,72.86 181.21,126.8 46.84,53.93 81.85,118.29 104.09,192.09 22.24,73.81 33.12,154.25 33.12,241.3l0 55.36zm-337.83 -99.36c2.84,-97.94 -17.03,-175.06 -59.14,-230.89 -42.11,-56.3 -106.93,-84.22 -194.94,-84.22 -44.47,0 -83.27,8.52 -115.92,25.08 -33.12,16.56 -60.56,38.79 -82.32,67.19 -21.77,28.38 -38.32,61.51 -49.68,99.83 -11.83,38.79 -18.46,79.48 -20.35,123.01l522.34 0zm1420.84 -368.57c0,33.11 -0.95,60.56 -2.84,81.85 -1.9,21.29 -4.74,37.85 -8.05,49.68 -3.79,11.83 -8.99,20.35 -14.67,25.07 -6.15,4.73 -13.72,6.63 -23.19,6.63 -7.1,0 -15.62,-1.42 -25.07,-4.74 -8.99,-3.31 -19.4,-6.62 -31.22,-10.41 -11.36,-3.78 -24.13,-7.1 -37.85,-10.41 -14.2,-3.31 -29.33,-4.73 -45.9,-4.73 -19.4,0 -38.79,3.78 -58.2,11.83 -19.4,8.04 -39.74,19.88 -60.56,36.9 -20.82,16.56 -42.58,38.8 -65.3,66.24 -22.71,27.92 -46.84,61.99 -72.86,102.68l0 771.69c0,8.99 -2.83,17.04 -8.51,24.12 -5.21,7.1 -14.67,12.78 -28.39,17.51 -13.25,4.26 -31.22,8.05 -52.99,10.42 -22.24,2.36 -50.63,3.31 -84.69,3.31 -34.06,0 -62.46,-0.95 -84.69,-3.31 -21.77,-2.37 -39.74,-6.16 -52.99,-10.42 -13.73,-4.73 -23.19,-10.41 -28.39,-17.51 -5.68,-7.09 -8.52,-15.14 -8.52,-24.12l0 -1237.73c0,-8.99 2.37,-17.04 7.1,-24.13 4.26,-7.1 12.78,-12.77 24.6,-17.51 12.31,-4.26 27.44,-8.04 46.37,-10.41 18.93,-2.36 43.05,-3.31 71.45,-3.31 29.8,0 53.94,0.95 73.33,3.31 19.4,2.37 34.54,6.15 45.42,10.41 10.41,4.74 17.98,10.41 22.72,17.51 4.73,7.1 7.09,15.15 7.09,24.13l0 154.24c32.18,-46.36 62.94,-84.21 91.32,-114.03 28.86,-29.8 56.31,-53.94 81.85,-71.45 26.02,-17.51 52.05,-29.8 78.06,-36.43 25.55,-7.09 51.58,-10.41 77.6,-10.41 11.83,0 25.07,0.48 38.79,1.9 13.72,1.42 28.39,3.78 43.06,7.1 14.67,3.31 27.91,7.09 38.79,10.88 11.36,4.26 19.4,8.52 24.6,13.25 4.73,4.73 8.52,9.94 10.88,15.14 2.37,5.68 4.26,13.25 6.16,23.19 1.89,9.47 3.31,24.13 4.26,43.53 0.94,19.4 1.42,45.42 1.42,78.54zm1051.31 772.16c0,70.03 -13.25,132.01 -39.74,185.95 -26.02,53.46 -63.41,97.94 -111.67,134.37 -48.26,35.95 -105.04,62.93 -170.8,80.9 -65.77,17.98 -136.73,26.96 -213.39,26.96 -46.36,0 -90.84,-3.31 -132.95,-10.41 -42.1,-7.1 -79.48,-16.09 -113.08,-26.96 -33.12,-10.41 -61.04,-21.3 -83.27,-32.65 -22.24,-11.35 -38.32,-21.76 -48.26,-31.69 -10.41,-9.94 -18.46,-25.07 -23.66,-45.9 -5.68,-20.35 -8.52,-51.1 -8.52,-91.78 0,-26.5 0.95,-47.79 2.84,-63.88 1.89,-16.09 4.73,-29.33 8.04,-38.8 3.79,-9.46 8.52,-16.09 14.2,-19.4 5.21,-3.31 12.31,-4.73 20.82,-4.73 9.94,0 25.08,5.68 44.95,17.51 19.88,11.83 44.48,24.6 74.28,38.32 29.33,14.2 63.88,27.44 103.15,39.27 39.26,12.3 84.21,18.45 133.89,18.45 31.23,0 59.62,-3.31 83.75,-9.93 24.59,-6.16 45.89,-15.62 63.87,-27.91 17.99,-11.84 31.7,-26.97 41.16,-45.9 9,-18.46 13.73,-39.74 13.73,-63.88 0,-27.91 -8.52,-51.57 -25.55,-71.44 -17.51,-19.88 -40.21,-37.38 -68.13,-52.05 -28.39,-14.67 -60.57,-28.39 -96.05,-41.64 -35.48,-12.77 -72.39,-26.96 -109.77,-43.05 -37.38,-15.62 -74.28,-33.59 -109.77,-53.94 -35.49,-20.35 -67.67,-44.95 -96.05,-74.75 -27.91,-29.33 -50.63,-65.3 -68.14,-106.46 -17.03,-41.64 -25.54,-91.79 -25.54,-149.99 0,-59.14 11.83,-113.08 35.01,-162.76 23.19,-49.21 56.3,-91.79 99.83,-126.8 44,-35.01 97,-62.46 159.45,-81.85 62.93,-19.4 132.95,-28.86 211.03,-28.86 39.27,0 76.64,2.84 113.55,8.05 36.43,5.68 70.03,12.78 99.36,20.82 29.81,8.52 54.89,17.04 75.23,26.97 20.35,9.46 35.01,17.98 44,24.59 8.99,7.1 15.14,13.73 18.93,20.83 3.31,7.1 6.15,15.14 8.04,25.07 1.9,9.46 3.79,21.77 5.21,35.95 1.42,14.2 1.89,32.17 1.89,53.47 0,25.07 -0.47,45.42 -1.89,61.04 -1.42,15.61 -3.79,28.38 -7.1,37.37 -3.31,9.47 -7.57,15.62 -13.25,18.93 -5.68,3.32 -12.3,4.74 -19.4,4.74 -8.52,0 -21.77,-4.74 -39.27,-14.67 -17.51,-9.47 -39.74,-19.88 -66.24,-30.76 -26.5,-10.88 -57.26,-21.29 -91.79,-30.75 -35.01,-9.93 -74.75,-14.67 -119.24,-14.67 -31.7,0 -59.14,3.32 -82.32,9.47 -23.19,6.62 -42.11,16.09 -57.25,27.91 -14.67,11.83 -26.02,26.02 -33.12,42.11 -7.57,16.09 -11.36,33.59 -11.36,51.57 0,28.86 8.99,52.99 26.49,72.39 17.51,19.4 40.69,36.43 69.56,51.1 28.38,14.67 61.51,28.85 97.94,41.63 36.43,12.78 73.81,26.97 111.19,42.11 37.38,15.14 74.75,33.12 111.19,53.47 36.43,20.34 69.56,45.42 97.94,74.75 28.86,29.8 52.05,64.82 69.56,105.98 17.51,41.16 26.49,89.9 26.49,146.2zm2151.83 -852.12c0,101.25 -15.61,190.2 -47.31,267.79 -31.22,78.07 -77.12,143.36 -137.68,196.36 -60.09,53.46 -133.9,93.68 -221.43,121.59 -87.53,27.91 -190.67,41.63 -309.44,41.63l-149.98 0 0 572.03c0,9.46 -2.84,17.51 -8.99,25.07 -6.16,7.1 -16.09,13.25 -29.81,17.98 -13.72,4.74 -32.17,8.05 -55.36,10.89 -22.71,2.84 -52.52,4.26 -88,4.26 -35.01,0 -64.35,-1.42 -88,-4.26 -23.66,-2.84 -42.11,-6.63 -55.83,-10.89 -13.73,-4.73 -23.67,-10.88 -28.86,-17.98 -5.68,-7.57 -8.52,-16.09 -8.52,-25.07l0 -1613.88c0,-43.52 11.36,-76.17 34.06,-97.94 22.72,-21.77 52.52,-32.64 89.43,-32.64l422.98 0c42.58,0 83.27,1.42 121.59,4.73 38.33,3.32 84.22,10.41 138.16,20.83 53.46,10.88 107.88,30.27 162.76,59.14 54.89,28.38 102.2,64.82 141,108.82 38.79,44.01 68.61,95.11 88.95,154.25 20.35,58.67 30.27,124.43 30.27,197.3zm-380.4 26.49c0,-62.93 -11.36,-114.97 -33.59,-155.66 -22.24,-40.69 -49.68,-70.98 -82.32,-90.37 -32.65,-19.4 -66.72,-31.7 -102.2,-36.9 -35.96,-5.21 -72.86,-7.58 -111.19,-7.58l-156.14 0 0 610.35 164.65 0c58.68,0 107.41,-8.04 147.15,-23.66 39.27,-15.62 71.91,-37.85 97,-66.24 25.07,-27.92 44,-61.99 57.25,-101.26 12.77,-39.27 19.4,-82.32 19.4,-128.69zm1436.93 53.47c0,33.11 -0.95,60.56 -2.84,81.85 -1.9,21.29 -4.74,37.85 -8.05,49.68 -3.79,11.83 -8.99,20.35 -14.67,25.07 -6.15,4.73 -13.72,6.63 -23.19,6.63 -7.1,0 -15.62,-1.42 -25.07,-4.74 -8.99,-3.31 -19.4,-6.62 -31.22,-10.41 -11.36,-3.78 -24.13,-7.1 -37.85,-10.41 -14.2,-3.31 -29.33,-4.73 -45.9,-4.73 -19.4,0 -38.79,3.78 -58.2,11.83 -19.4,8.04 -39.74,19.88 -60.56,36.9 -20.82,16.56 -42.58,38.8 -65.3,66.24 -22.71,27.92 -46.84,61.99 -72.86,102.68l0 771.69c0,8.99 -2.83,17.04 -8.51,24.12 -5.21,7.1 -14.67,12.78 -28.39,17.51 -13.25,4.26 -31.22,8.05 -52.99,10.42 -22.24,2.36 -50.63,3.31 -84.69,3.31 -34.06,0 -62.46,-0.95 -84.69,-3.31 -21.77,-2.37 -39.74,-6.16 -52.99,-10.42 -13.73,-4.73 -23.19,-10.41 -28.39,-17.51 -5.68,-7.09 -8.52,-15.14 -8.52,-24.12l0 -1237.73c0,-8.99 2.37,-17.04 7.1,-24.13 4.26,-7.1 12.78,-12.77 24.6,-17.51 12.31,-4.26 27.44,-8.04 46.37,-10.41 18.93,-2.36 43.05,-3.31 71.45,-3.31 29.8,0 53.94,0.95 73.33,3.31 19.4,2.37 34.54,6.15 45.42,10.41 10.41,4.74 17.98,10.41 22.72,17.51 4.73,7.1 7.09,15.15 7.09,24.13l0 154.24c32.18,-46.36 62.94,-84.21 91.32,-114.03 28.86,-29.8 56.31,-53.94 81.85,-71.45 26.02,-17.51 52.05,-29.8 78.06,-36.43 25.55,-7.09 51.58,-10.41 77.6,-10.41 11.83,0 25.07,0.48 38.79,1.9 13.72,1.42 28.39,3.78 43.06,7.1 14.67,3.31 27.91,7.09 38.79,10.88 11.36,4.26 19.4,8.52 24.6,13.25 4.73,4.73 8.52,9.94 10.88,15.14 2.37,5.68 4.26,13.25 6.16,23.19 1.89,9.47 3.31,24.13 4.26,43.53 0.94,19.4 1.42,45.42 1.42,78.54zm563.5 1122.28c0,8.99 -2.83,17.04 -8.51,24.12 -5.21,7.1 -14.67,12.78 -28.39,17.51 -13.25,4.26 -31.22,8.05 -52.99,10.42 -22.24,2.36 -50.63,3.31 -84.69,3.31 -34.06,0 -62.46,-0.95 -84.69,-3.31 -21.77,-2.37 -39.74,-6.16 -52.99,-10.42 -13.73,-4.73 -23.19,-10.41 -28.39,-17.51 -5.68,-7.09 -8.52,-15.14 -8.52,-24.12l0 -1234.89c0,-8.99 2.84,-17.04 8.52,-24.13 5.21,-7.1 14.67,-13.25 28.39,-17.98 13.25,-5.21 31.22,-8.99 52.99,-11.83 22.24,-2.84 50.63,-4.26 84.69,-4.26 34.06,0 62.46,1.42 84.69,4.26 21.77,2.84 39.74,6.62 52.99,11.83 13.73,4.73 23.19,10.88 28.39,17.98 5.68,7.1 8.51,15.15 8.51,24.13l0 1234.89zm28.39 -1657.88c0,70.5 -14.2,118.77 -43.06,145.73 -28.85,26.96 -81.85,40.21 -159.92,40.21 -78.54,0 -132,-12.77 -158.98,-38.79 -27.44,-26.02 -41.16,-72.86 -41.16,-140.05 0,-70.5 14.2,-119.24 42.58,-146.67 27.91,-26.97 81.38,-40.69 160.4,-40.69 77.59,0 130.58,13.25 158.5,39.74 27.91,26.02 41.64,72.86 41.64,140.52z"/>
  <path class="fil1" d="M36234.21 15832.35c0,4.73 0,10.41 -0.48,17.03 -0.47,6.16 -1.42,13.26 -2.84,21.3 -1.42,8.05 -3.31,17.04 -5.68,26.97 -2.36,10.41 -5.2,21.76 -8.99,34.53l-371.41 1119.93c-4.26,15.61 -10.88,28.38 -18.46,37.85 -8.04,9.93 -20.82,17.51 -38.79,23.18 -17.98,5.21 -42.58,9 -73.33,10.89 -30.75,1.89 -71.45,2.84 -121.12,2.84 -48.74,0 -88.95,-0.95 -119.7,-3.31 -30.75,-2.37 -55.36,-6.63 -72.86,-11.84 -17.51,-5.67 -30.28,-13.25 -37.85,-23.18 -8.04,-9.47 -14.2,-21.77 -18.93,-36.43l-370.46 -1119.93c-5.68,-18.45 -9.94,-35.01 -13.25,-49.68 -3.32,-14.67 -5.21,-25.54 -5.68,-32.17 -0.48,-6.15 -0.48,-12.3 -0.48,-17.98 0,-8.99 2.37,-17.04 7.58,-24.13 5.2,-7.1 14.19,-12.77 26.96,-17.51 12.78,-4.26 30.75,-7.57 52.99,-9.46 22.72,-1.89 51.1,-2.84 85.17,-2.84 37.84,0 68.13,0.95 91.31,3.31 22.72,2.37 41.16,5.68 54.41,9.94 13.25,4.26 22.72,9.94 28.39,17.98 5.2,8.05 9.94,17.51 13.72,28.39l281.04 908.9 8.52 34.53 8.05 -34.53 275.84 -908.9c2.84,-10.89 7.09,-20.35 13.25,-28.39 6.15,-8.04 15.61,-13.72 28.38,-17.98 13.25,-4.26 30.28,-7.57 52.05,-9.94 22.24,-2.36 50.62,-3.31 85.63,-3.31 34.54,0 62.46,0.95 84.22,2.84 21.77,1.89 38.8,5.2 50.63,9.46 12.3,4.74 20.35,10.41 25.07,17.51 4.73,7.1 7.1,15.15 7.1,24.13zm1217.85 1243.41c0,12.78 -4.73,22.71 -13.72,30.28 -9.47,7.57 -24.13,12.77 -44,16.09 -19.88,3.31 -49.21,4.73 -88.48,4.73 -41.63,0 -71.91,-1.42 -90.84,-4.73 -18.93,-3.32 -32.64,-8.52 -40.21,-16.09 -8.05,-7.58 -11.84,-17.51 -11.84,-30.28l0 -98.42c-51.1,54.42 -108.82,96.53 -174.11,126.8 -64.82,30.28 -137.21,45.42 -216.69,45.42 -65.3,0 -125.85,-8.51 -180.74,-25.54 -54.88,-17.04 -102.2,-42.58 -142.41,-76.17 -40.22,-34.07 -71.45,-75.7 -93.68,-125.38 -22.25,-50.15 -33.12,-108.35 -33.12,-174.59 0,-72.38 14.2,-134.84 42.11,-187.83 28.38,-53.47 70.5,-97 126.32,-132 55.84,-34.54 124.91,-60.1 208.19,-76.65 82.79,-16.56 179.32,-25.07 289.09,-25.07l120.64 0 0 -74.75c0,-38.8 -3.78,-72.86 -11.83,-102.2 -7.57,-28.86 -20.82,-53.47 -38.79,-72.86 -17.99,-19.4 -41.64,-33.59 -71.92,-43.06 -29.8,-8.99 -67.19,-13.72 -111.19,-13.72 -58.2,0 -110.24,6.63 -155.66,19.4 -45.9,12.78 -86.11,27.44 -121.12,43.06 -35.01,15.61 -64.35,30.28 -88,43.05 -23.67,12.78 -42.59,19.41 -57.26,19.41 -10.41,0 -19.4,-3.32 -26.96,-9.47 -8.05,-6.62 -14.67,-16.09 -19.4,-27.91 -5.21,-11.83 -9,-26.96 -11.83,-44.47 -2.84,-17.51 -4.26,-36.91 -4.26,-57.73 0,-28.86 2.36,-51.57 7.09,-68.14 4.26,-16.56 13.26,-31.22 26.02,-44.94 13.25,-13.25 35.49,-27.91 68.14,-44 32.17,-16.1 70.03,-31.23 113.56,-44.95 43.52,-14.2 90.84,-25.55 141.94,-34.07 51.57,-8.99 104.56,-13.25 158.98,-13.25 96.99,0 179.79,9.47 248.87,28.39 68.61,18.93 125.38,48.26 169.38,87.53 44.47,39.27 77.12,89.89 97.47,151.88 20.35,61.51 30.27,135.31 30.27,220l0 832.26zm-343.5 -530.86l-132.95 0c-56.3,0 -104.09,4.25 -143.83,12.3 -39.74,8.52 -71.91,20.82 -97,37.85 -25.07,16.56 -43.05,36.43 -54.41,60.09 -11.83,23.66 -17.51,50.63 -17.51,80.9 0,52.05 16.56,92.74 49.21,122.07 32.64,29.8 78.06,44.47 136.26,44.47 48.73,0 93.68,-12.3 134.84,-37.37 41.17,-25.07 82.8,-61.51 125.38,-109.77l0 -210.55zm1864.17 526.6c0,9.94 -2.37,18.46 -7.1,25.54 -4.26,7.1 -12.3,12.78 -23.19,17.51 -11.36,4.26 -26.49,7.58 -45.42,9.47 -18.93,1.89 -42.11,2.84 -69.55,2.84 -29.81,0 -53.94,-0.95 -72.39,-2.84 -18.46,-1.89 -33.12,-5.21 -44.95,-9.47 -11.36,-4.73 -19.87,-10.88 -24.6,-17.51 -5.2,-7.09 -8.04,-15.61 -8.04,-26.01l0 -137.69c-63.41,68.61 -130.59,121.6 -200.14,159.46 -70.03,37.84 -147.15,56.77 -232.31,56.77 -94.16,0 -174.11,-18.45 -238.94,-54.88 -65.29,-36.43 -118.29,-85.64 -159.45,-147.62 -41.16,-61.51 -70.97,-133.9 -89.42,-216.7 -18.46,-82.79 -27.91,-169.85 -27.91,-261.17 0,-109.77 11.83,-208.66 35.48,-296.66 23.66,-87.53 57.73,-162.29 103.15,-224.27 45.42,-61.98 101.72,-109.3 169.38,-142.89 67.19,-33.11 144.78,-49.68 232.78,-49.68 69.08,0 132,14.2 188.31,42.11 56.78,28.39 112.61,69.56 167.96,123.96l0 -668.55c0,-9.46 2.36,-17.51 7.57,-25.07 5.21,-7.1 14.2,-13.72 27.91,-18.45 13.25,-5.21 31.23,-8.99 52.99,-11.83 22.25,-2.84 50.63,-4.26 84.69,-4.26 34.07,0 62.46,1.42 84.69,4.26 21.77,2.84 39.75,6.62 52.52,11.83 12.78,4.73 22.25,11.35 27.44,18.45 5.68,7.57 8.52,15.62 8.52,25.07l0 1818.28zm-346.34 -826.58c-49.68,-62.93 -97.94,-110.72 -143.36,-144.31 -45.9,-33.11 -93.68,-49.68 -143.84,-49.68 -44.94,0 -84.21,11.36 -116.87,34.07 -33.11,22.71 -59.14,52.52 -79.01,90.37 -19.87,38.32 -35.01,80.43 -44.47,126.79 -9.94,46.84 -14.67,94.63 -14.67,143.37 0,52.04 4.26,102.19 12.3,150.93 8.52,49.2 22.24,92.73 41.16,131.06 18.93,38.32 44,69.08 75.7,92.26 31.23,23.19 70.98,34.53 119.24,34.53 23.66,0 47.31,-3.31 70.03,-10.41 22.71,-7.1 45.42,-17.98 69.08,-34.06 23.66,-15.62 47.79,-35.96 72.86,-61.51 25.07,-25.55 52.52,-56.31 81.85,-93.21l0 -410.21zm1946.49 195.41c0,105.04 -13.72,201.09 -41.63,288.14 -27.91,86.58 -69.56,161.35 -126.33,224.27 -56.3,62.93 -126.79,111.19 -211.97,145.72 -85.16,34.07 -184.52,51.1 -298.08,51.1 -110.24,0 -205.82,-15.14 -287.19,-45.89 -81.38,-30.28 -149.04,-74.75 -202.51,-132.95 -53.46,-58.2 -93.21,-129.64 -119.23,-214.8 -26.02,-84.69 -38.8,-181.68 -38.8,-290.98 0,-105.04 14.2,-201.56 42.11,-288.62 28.38,-87.53 70.5,-162.29 127.27,-224.74 56.3,-61.98 126.8,-110.24 211.5,-144.78 84.21,-34.06 183.57,-51.1 297.13,-51.1 111.19,0 207.24,15.15 288.62,44.95 81.37,30.28 148.56,74.28 201.56,132.48 53.46,58.2 92.73,129.64 118.76,214.8 26.02,84.69 38.79,182.15 38.79,292.4zm-357.69 13.72c0,-61.03 -4.74,-117.34 -14.67,-168.43 -9.94,-51.57 -26.02,-96.05 -49.68,-133.9 -23.19,-37.84 -53.94,-67.66 -92.27,-88.94 -38.79,-21.3 -87.05,-31.7 -145.72,-31.7 -52.05,0 -97.47,9.46 -136.74,28.38 -38.8,18.93 -70.98,46.84 -96.05,83.27 -25.07,36.43 -44,80.43 -56.3,131.53 -12.78,51.58 -18.93,109.77 -18.93,175.53 0,61.04 5.2,117.35 15.14,168.44 10.41,51.57 26.97,96.04 49.68,133.89 22.72,37.85 53.47,67.19 92.74,88.01 38.79,20.82 87.05,31.22 144.78,31.22 52.99,0 98.88,-9.47 138.15,-28.38 38.8,-18.93 70.98,-46.37 96.05,-82.33 25.07,-36.43 43.53,-79.96 55.83,-131.06 11.83,-51.57 17.99,-109.77 17.99,-175.53zm1506.47 267.32c0,70.03 -13.25,132.01 -39.74,185.95 -26.02,53.46 -63.41,97.94 -111.67,134.37 -48.26,35.95 -105.04,62.93 -170.8,80.9 -65.77,17.98 -136.73,26.96 -213.39,26.96 -46.36,0 -90.84,-3.31 -132.95,-10.41 -42.1,-7.1 -79.48,-16.09 -113.08,-26.96 -33.12,-10.41 -61.04,-21.3 -83.27,-32.65 -22.24,-11.35 -38.32,-21.76 -48.26,-31.69 -10.41,-9.94 -18.46,-25.07 -23.66,-45.9 -5.68,-20.35 -8.52,-51.1 -8.52,-91.78 0,-26.5 0.95,-47.79 2.84,-63.88 1.89,-16.09 4.73,-29.33 8.04,-38.8 3.79,-9.46 8.52,-16.09 14.2,-19.4 5.21,-3.31 12.31,-4.73 20.82,-4.73 9.94,0 25.08,5.68 44.95,17.51 19.88,11.83 44.48,24.6 74.28,38.32 29.33,14.2 63.88,27.44 103.15,39.27 39.26,12.3 84.21,18.45 133.89,18.45 31.23,0 59.62,-3.31 83.75,-9.93 24.59,-6.16 45.89,-15.62 63.87,-27.91 17.99,-11.84 31.7,-26.97 41.16,-45.9 9,-18.46 13.73,-39.74 13.73,-63.88 0,-27.91 -8.52,-51.57 -25.55,-71.44 -17.51,-19.88 -40.21,-37.38 -68.13,-52.05 -28.39,-14.67 -60.57,-28.39 -96.05,-41.64 -35.48,-12.77 -72.39,-26.96 -109.77,-43.05 -37.38,-15.62 -74.28,-33.59 -109.77,-53.94 -35.49,-20.35 -67.67,-44.95 -96.05,-74.75 -27.91,-29.33 -50.63,-65.3 -68.14,-106.46 -17.03,-41.64 -25.54,-91.79 -25.54,-149.99 0,-59.14 11.83,-113.08 35.01,-162.76 23.19,-49.21 56.3,-91.79 99.83,-126.8 44,-35.01 97,-62.46 159.45,-81.85 62.93,-19.4 132.95,-28.86 211.03,-28.86 39.27,0 76.64,2.84 113.55,8.05 36.43,5.68 70.03,12.78 99.36,20.82 29.81,8.52 54.89,17.04 75.23,26.97 20.35,9.46 35.01,17.98 44,24.59 8.99,7.1 15.14,13.73 18.93,20.83 3.31,7.1 6.15,15.14 8.04,25.07 1.9,9.46 3.79,21.77 5.21,35.95 1.42,14.2 1.89,32.17 1.89,53.47 0,25.07 -0.47,45.42 -1.89,61.04 -1.42,15.61 -3.79,28.38 -7.1,37.37 -3.31,9.47 -7.57,15.62 -13.25,18.93 -5.68,3.32 -12.3,4.74 -19.4,4.74 -8.52,0 -21.77,-4.74 -39.27,-14.67 -17.51,-9.47 -39.74,-19.88 -66.24,-30.76 -26.5,-10.88 -57.26,-21.29 -91.79,-30.75 -35.01,-9.93 -74.75,-14.67 -119.24,-14.67 -31.7,0 -59.14,3.32 -82.32,9.47 -23.19,6.62 -42.11,16.09 -57.25,27.91 -14.67,11.83 -26.02,26.02 -33.12,42.11 -7.57,16.09 -11.36,33.59 -11.36,51.57 0,28.86 8.99,52.99 26.49,72.39 17.51,19.4 40.69,36.43 69.56,51.1 28.38,14.67 61.51,28.85 97.94,41.63 36.43,12.78 73.81,26.97 111.19,42.11 37.38,15.14 74.75,33.12 111.19,53.47 36.43,20.34 69.56,45.42 97.94,74.75 28.86,29.8 52.05,64.82 69.56,105.98 17.51,41.16 26.49,89.9 26.49,146.2zm1515.93 -301.39c0,53.94 -5.2,91.32 -15.14,112.61 -10.41,21.3 -26.49,32.17 -48.74,32.17l-577.7 0c-23.19,0 -39.74,-10.88 -50.15,-32.64 -9.94,-21.77 -15.15,-59.15 -15.15,-112.14 0,-52.05 5.21,-88.48 15.15,-109.77 10.41,-21.3 26.96,-32.17 50.15,-32.17l577.7 0c11.36,0 20.83,2.36 28.39,7.1 8.04,4.73 14.67,12.3 20.35,23.66 5.2,10.88 9.46,26.02 11.83,44.47 2.37,18.46 3.31,40.69 3.31,66.72zm2109.73 -946.28c0,26.97 -0.95,49.68 -3.31,69.09 -2.37,18.93 -5.68,34.06 -10.41,45.42 -4.74,11.83 -10.41,20.35 -17.51,25.54 -6.63,5.68 -14.67,8.52 -22.72,8.52l-448.54 0 0 1446.39c0,8.99 -2.84,17.51 -8.99,25.07 -6.15,7.1 -16.09,13.25 -29.8,17.98 -13.73,4.26 -32.65,8.05 -56.31,10.89 -23.66,2.84 -52.99,4.26 -88,4.26 -35.01,0 -64.35,-1.42 -88,-4.26 -23.67,-2.84 -42.58,-6.63 -56.31,-10.89 -13.72,-4.73 -23.66,-10.88 -29.8,-17.98 -6.15,-7.57 -8.99,-16.09 -8.99,-25.07l0 -1446.39 -448.54 0c-9,0 -17.04,-2.84 -23.67,-8.52 -6.15,-5.2 -11.83,-13.72 -16.56,-25.54 -4.26,-11.36 -8.04,-26.49 -10.41,-45.42 -2.37,-19.41 -3.31,-42.11 -3.31,-69.09 0,-27.43 0.94,-51.1 3.31,-70.5 2.37,-19.4 6.15,-35.01 10.41,-46.37 4.73,-11.83 10.41,-19.87 16.56,-25.07 6.63,-5.2 14.67,-7.57 23.67,-7.57l1263.28 0c8.05,0 15.62,2.37 22.72,7.57 7.1,5.21 12.77,13.25 17.51,25.07 4.73,11.36 8.04,26.97 10.41,46.37 2.36,19.4 3.31,43.06 3.31,70.5zm1197.04 966.63c0,105.04 -13.72,201.09 -41.63,288.14 -27.91,86.58 -69.56,161.35 -126.33,224.27 -56.3,62.93 -126.79,111.19 -211.97,145.72 -85.16,34.07 -184.52,51.1 -298.08,51.1 -110.24,0 -205.82,-15.14 -287.19,-45.89 -81.38,-30.28 -149.04,-74.75 -202.51,-132.95 -53.46,-58.2 -93.21,-129.64 -119.23,-214.8 -26.02,-84.69 -38.8,-181.68 -38.8,-290.98 0,-105.04 14.2,-201.56 42.11,-288.62 28.38,-87.53 70.5,-162.29 127.27,-224.74 56.3,-61.98 126.8,-110.24 211.5,-144.78 84.21,-34.06 183.57,-51.1 297.13,-51.1 111.19,0 207.24,15.15 288.62,44.95 81.37,30.28 148.56,74.28 201.56,132.48 53.46,58.2 92.73,129.64 118.76,214.8 26.02,84.69 38.79,182.15 38.79,292.4zm-357.69 13.72c0,-61.03 -4.74,-117.34 -14.67,-168.43 -9.94,-51.57 -26.02,-96.05 -49.68,-133.9 -23.19,-37.84 -53.94,-67.66 -92.27,-88.94 -38.79,-21.3 -87.05,-31.7 -145.72,-31.7 -52.05,0 -97.47,9.46 -136.74,28.38 -38.8,18.93 -70.98,46.84 -96.05,83.27 -25.07,36.43 -44,80.43 -56.3,131.53 -12.78,51.58 -18.93,109.77 -18.93,175.53 0,61.04 5.2,117.35 15.14,168.44 10.41,51.57 26.97,96.04 49.68,133.89 22.72,37.85 53.47,67.19 92.74,88.01 38.79,20.82 87.05,31.22 144.78,31.22 52.99,0 98.88,-9.47 138.15,-28.38 38.8,-18.93 70.98,-46.37 96.05,-82.33 25.07,-36.43 43.53,-79.96 55.83,-131.06 11.83,-51.57 17.99,-109.77 17.99,-175.53zm1807.39 617.45c0,8.99 -2.37,17.04 -7.1,24.12 -4.26,7.1 -12.3,12.78 -24.12,17.51 -11.36,4.26 -26.5,8.05 -45.9,10.42 -18.93,2.36 -42.58,3.31 -70.97,3.31 -30.75,0 -55.36,-0.95 -74.28,-3.31 -18.93,-2.37 -34.07,-6.16 -44.95,-10.42 -11.36,-4.73 -18.93,-10.41 -23.66,-17.51 -4.73,-7.09 -7.1,-15.14 -7.1,-24.12l0 -142.89c-68.14,73.33 -137.68,128.69 -208.66,165.6 -70.97,36.91 -144.31,55.36 -220,55.36 -85.17,0 -157.09,-13.72 -214.81,-41.63 -57.72,-27.44 -104.56,-65.77 -140.04,-113.56 -35.49,-48.26 -61.04,-103.62 -76.65,-167.02 -15.14,-63.41 -22.71,-142.42 -22.71,-236.57l0 -757.02c0,-8.99 2.36,-17.04 7.57,-24.13 5.2,-7.1 14.67,-12.77 27.91,-17.51 13.25,-4.26 31.7,-8.04 54.41,-10.41 22.72,-2.36 50.63,-3.31 84.22,-3.31 34.06,0 62.46,0.95 84.69,3.31 22.24,2.37 40.21,6.15 53.46,10.41 13.73,4.74 23.19,10.41 28.39,17.51 5.68,7.1 8.52,15.15 8.52,24.13l0 698.82c0,64.82 4.26,114.03 12.3,148.09 8.52,34.54 21.3,63.88 38.32,88.01 17.04,24.6 38.8,43.52 65.3,57.25 26.02,13.25 56.78,19.87 92.26,19.87 44.48,0 88.95,-16.09 133.9,-48.26 44.47,-32.17 92.73,-79.48 143.36,-140.99l0 -822.79c0,-8.99 2.36,-17.04 7.57,-24.13 5.21,-7.1 14.2,-12.77 27.91,-17.51 13.25,-4.26 31.23,-8.04 52.99,-10.41 22.25,-2.36 50.63,-3.31 84.69,-3.31 34.07,0 62.46,0.95 84.69,3.31 21.77,2.37 39.75,6.15 52.52,10.41 12.78,4.74 22.25,10.41 27.44,17.51 5.68,7.1 8.52,15.15 8.52,24.13l0 1237.73zm1145.95 -1122.28c0,33.11 -0.95,60.56 -2.84,81.85 -1.9,21.29 -4.74,37.85 -8.05,49.68 -3.79,11.83 -8.99,20.35 -14.67,25.07 -6.15,4.73 -13.72,6.63 -23.19,6.63 -7.1,0 -15.62,-1.42 -25.07,-4.74 -8.99,-3.31 -19.4,-6.62 -31.22,-10.41 -11.36,-3.78 -24.13,-7.1 -37.85,-10.41 -14.2,-3.31 -29.33,-4.73 -45.9,-4.73 -19.4,0 -38.79,3.78 -58.2,11.83 -19.4,8.04 -39.74,19.88 -60.56,36.9 -20.82,16.56 -42.58,38.8 -65.3,66.24 -22.71,27.92 -46.84,61.99 -72.86,102.68l0 771.69c0,8.99 -2.83,17.04 -8.51,24.12 -5.21,7.1 -14.67,12.78 -28.39,17.51 -13.25,4.26 -31.22,8.05 -52.99,10.42 -22.24,2.36 -50.63,3.31 -84.69,3.31 -34.06,0 -62.46,-0.95 -84.69,-3.31 -21.77,-2.37 -39.74,-6.16 -52.99,-10.42 -13.73,-4.73 -23.19,-10.41 -28.39,-17.51 -5.68,-7.09 -8.52,-15.14 -8.52,-24.12l0 -1237.73c0,-8.99 2.37,-17.04 7.1,-24.13 4.26,-7.1 12.78,-12.77 24.6,-17.51 12.31,-4.26 27.44,-8.04 46.37,-10.41 18.93,-2.36 43.05,-3.31 71.45,-3.31 29.8,0 53.94,0.95 73.33,3.31 19.4,2.37 34.54,6.15 45.42,10.41 10.41,4.74 17.98,10.41 22.72,17.51 4.73,7.1 7.09,15.15 7.09,24.13l0 154.24c32.18,-46.36 62.94,-84.21 91.32,-114.03 28.86,-29.8 56.31,-53.94 81.85,-71.45 26.02,-17.51 52.05,-29.8 78.06,-36.43 25.55,-7.09 51.58,-10.41 77.6,-10.41 11.83,0 25.07,0.48 38.79,1.9 13.72,1.42 28.39,3.78 43.06,7.1 14.67,3.31 27.91,7.09 38.79,10.88 11.36,4.26 19.4,8.52 24.6,13.25 4.73,4.73 8.52,9.94 10.88,15.14 2.37,5.68 4.26,13.25 6.16,23.19 1.89,9.47 3.31,24.13 4.26,43.53 0.94,19.4 1.42,45.42 1.42,78.54zm1051.31 772.16c0,70.03 -13.25,132.01 -39.74,185.95 -26.02,53.46 -63.41,97.94 -111.67,134.37 -48.26,35.95 -105.04,62.93 -170.8,80.9 -65.77,17.98 -136.73,26.96 -213.39,26.96 -46.36,0 -90.84,-3.31 -132.95,-10.41 -42.1,-7.1 -79.48,-16.09 -113.08,-26.96 -33.12,-10.41 -61.04,-21.3 -83.27,-32.65 -22.24,-11.35 -38.32,-21.76 -48.26,-31.69 -10.41,-9.94 -18.46,-25.07 -23.66,-45.9 -5.68,-20.35 -8.52,-51.1 -8.52,-91.78 0,-26.5 0.95,-47.79 2.84,-63.88 1.89,-16.09 4.73,-29.33 8.04,-38.8 3.79,-9.46 8.52,-16.09 14.2,-19.4 5.21,-3.31 12.31,-4.73 20.82,-4.73 9.94,0 25.08,5.68 44.95,17.51 19.88,11.83 44.48,24.6 74.28,38.32 29.33,14.2 63.88,27.44 103.15,39.27 39.26,12.3 84.21,18.45 133.89,18.45 31.23,0 59.62,-3.31 83.75,-9.93 24.59,-6.16 45.89,-15.62 63.87,-27.91 17.99,-11.84 31.7,-26.97 41.16,-45.9 9,-18.46 13.73,-39.74 13.73,-63.88 0,-27.91 -8.52,-51.57 -25.55,-71.44 -17.51,-19.88 -40.21,-37.38 -68.13,-52.05 -28.39,-14.67 -60.57,-28.39 -96.05,-41.64 -35.48,-12.77 -72.39,-26.96 -109.77,-43.05 -37.38,-15.62 -74.28,-33.59 -109.77,-53.94 -35.49,-20.35 -67.67,-44.95 -96.05,-74.75 -27.91,-29.33 -50.63,-65.3 -68.14,-106.46 -17.03,-41.64 -25.54,-91.79 -25.54,-149.99 0,-59.14 11.83,-113.08 35.01,-162.76 23.19,-49.21 56.3,-91.79 99.83,-126.8 44,-35.01 97,-62.46 159.45,-81.85 62.93,-19.4 132.95,-28.86 211.03,-28.86 39.27,0 76.64,2.84 113.55,8.05 36.43,5.68 70.03,12.78 99.36,20.82 29.81,8.52 54.89,17.04 75.23,26.97 20.35,9.46 35.01,17.98 44,24.59 8.99,7.1 15.14,13.73 18.93,20.83 3.31,7.1 6.15,15.14 8.04,25.07 1.9,9.46 3.79,21.77 5.21,35.95 1.42,14.2 1.89,32.17 1.89,53.47 0,25.07 -0.47,45.42 -1.89,61.04 -1.42,15.61 -3.79,28.38 -7.1,37.37 -3.31,9.47 -7.57,15.62 -13.25,18.93 -5.68,3.32 -12.3,4.74 -19.4,4.74 -8.52,0 -21.77,-4.74 -39.27,-14.67 -17.51,-9.47 -39.74,-19.88 -66.24,-30.76 -26.5,-10.88 -57.26,-21.29 -91.79,-30.75 -35.01,-9.93 -74.75,-14.67 -119.24,-14.67 -31.7,0 -59.14,3.32 -82.32,9.47 -23.19,6.62 -42.11,16.09 -57.25,27.91 -14.67,11.83 -26.02,26.02 -33.12,42.11 -7.57,16.09 -11.36,33.59 -11.36,51.57 0,28.86 8.99,52.99 26.49,72.39 17.51,19.4 40.69,36.43 69.56,51.1 28.38,14.67 61.51,28.85 97.94,41.63 36.43,12.78 73.81,26.97 111.19,42.11 37.38,15.14 74.75,33.12 111.19,53.47 36.43,20.34 69.56,45.42 97.94,74.75 28.86,29.8 52.05,64.82 69.56,105.98 17.51,41.16 26.49,89.9 26.49,146.2z"/>
 </g>
</svg>
